<svg width="164" height="76" viewBox="0 0 164 76" fill="none" xmlns="http://www.w3.org/2000/svg">
<g clip-path="url(#clip0_763_3083)">
<path d="M39.0034 54.829C38.9604 54.7878 38.9227 54.7106 38.8904 54.5972C38.8582 54.4839 38.8205 54.3654 38.7775 54.2418L38.487 53.4073L38.3579 53.2837C38.3579 53.2013 38.3364 53.0725 38.2934 52.8974C38.2504 52.7223 38.202 52.542 38.1482 52.3565C38.0944 52.1711 38.0406 52.0063 37.9868 51.862C37.933 51.7178 37.8954 51.6251 37.8739 51.5839C37.8523 51.5633 37.8093 51.4396 37.7448 51.213C37.6802 50.9863 37.6157 50.7339 37.5511 50.4558C37.4866 50.1776 37.4274 49.9201 37.3736 49.6831C37.3198 49.4462 37.2822 49.3071 37.2607 49.2659L37.1638 50.3167C37.1208 50.3579 37.0993 50.394 37.0993 50.4249C37.0993 50.4558 37.0778 50.5021 37.0348 50.564L37.067 51.1821L36.8734 51.6766L36.7443 51.8311C36.7443 51.8929 36.7335 51.9805 36.712 52.0938C36.6905 52.2071 36.6798 52.305 36.6798 52.3874V52.4492V52.5729C36.6798 52.6553 36.669 52.748 36.6475 52.851C36.626 52.954 36.6152 53.0571 36.6152 53.1601L36.4538 53.3764L36.3893 53.9018C36.3678 54.0049 36.3516 54.0873 36.3409 54.1491C36.3301 54.2109 36.3248 54.2624 36.3248 54.3036L36.1957 55.0145L36.002 55.0454L35.8729 55.1999L35.9052 55.2926L35.8407 55.4162L36.1311 55.2617L36.1957 55.3544V55.7253L36.3248 55.8489L36.1634 56.3125L36.2279 56.5289L36.0988 56.6834L35.8729 56.7143L35.7761 57.0543L35.4857 57.3633L35.6148 57.5179H35.1629L35.0661 57.1161L34.9693 56.9925L34.7111 57.147C34.7111 57.1676 34.7057 57.1831 34.695 57.1934C34.6842 57.2037 34.6788 57.2191 34.6788 57.2397C34.6788 57.2809 34.6842 57.3324 34.695 57.3943C34.7057 57.4561 34.7219 57.4973 34.7434 57.5179H34.582L34.0334 57.3015L33.4525 57.1779C33.3879 57.1161 33.3449 56.977 33.3234 56.7607C33.3019 56.5443 33.2696 56.4156 33.2266 56.3743L33.2911 56.158C33.3126 56.0962 33.3341 56.0395 33.3557 55.988C33.3772 55.9365 33.3879 55.8901 33.3879 55.8489V55.6326C33.3879 55.5708 33.3987 55.5296 33.4202 55.509L33.5493 55.2617V55.1381L33.7107 54.8908V54.6127C33.7107 54.5509 33.7268 54.4324 33.7591 54.2573C33.7913 54.0821 33.8182 53.9637 33.8397 53.9018L33.9688 53.5001V53.4692C33.9688 53.3867 33.985 53.2837 34.0172 53.1601C34.0495 53.0365 34.0764 52.9437 34.0979 52.8819L34.0334 52.5111C34.0334 52.4492 34.0764 52.3771 34.1625 52.2947L34.2916 52.1711L34.1947 52.0166V51.8929C34.2163 51.8723 34.2539 51.826 34.3077 51.7539C34.3615 51.6817 34.4207 51.5993 34.4852 51.5066C34.5497 51.4139 34.6035 51.3315 34.6466 51.2594C34.6896 51.1872 34.7111 51.1306 34.7111 51.0894L34.7434 50.9657L34.5497 50.9966C34.6358 50.5021 34.7434 50.0386 34.8725 49.6059C35.0016 49.1732 35.0661 48.6581 35.0661 48.0606L35.3566 47.4424L35.4534 47.1025C35.4534 47.02 35.4803 46.8861 35.5341 46.7007C35.5879 46.5152 35.6578 46.3195 35.7438 46.1135C35.8299 45.9074 35.916 45.7117 36.002 45.5262C36.0881 45.3408 36.1634 45.2069 36.2279 45.1245L37.0348 45.0317C37.2499 45.0729 37.5296 45.3356 37.8739 45.8198C38.2181 46.304 38.5301 46.9479 38.8098 47.7515L38.9066 47.7206C38.9066 48.1533 39.0142 48.5551 39.2293 48.9259L39.4229 49.2041L39.5198 49.7604L39.6166 49.9767C39.6381 50.121 39.6811 50.1931 39.7457 50.1931C39.8533 50.5434 39.9393 50.8576 40.0039 51.1357C40.0684 51.4139 40.1867 51.7281 40.3589 52.0784L40.3911 51.9857C40.4987 51.8002 40.6439 51.6405 40.8268 51.5066C41.0097 51.3727 41.1011 51.2027 41.1011 50.9966L41.327 50.4403L41.4239 50.3476C41.4669 50.327 41.4938 50.3064 41.5045 50.2858C41.5153 50.2652 41.5314 50.2446 41.553 50.224L41.8434 49.6677C42.0801 49.235 42.2737 48.8744 42.4243 48.586C42.5749 48.2975 42.7094 48.0399 42.8277 47.8133C42.9461 47.5867 43.0698 47.3497 43.1989 47.1025C43.328 46.8552 43.4786 46.5461 43.6507 46.1753C43.6292 46.1753 43.6184 46.1547 43.6184 46.1135C43.6184 45.8868 43.7206 45.6859 43.925 45.5108C44.1294 45.3356 44.3607 45.2275 44.6189 45.1863C44.6404 45.1863 44.6619 45.1914 44.6834 45.2017C44.7049 45.212 44.7372 45.2172 44.7802 45.2172C44.8878 45.2172 44.9577 45.1811 44.99 45.109C45.0223 45.0369 45.0707 45.0008 45.1352 45.0008L45.2321 44.939C45.2536 44.9184 45.2643 44.8978 45.2643 44.8772C45.2643 44.836 45.2751 44.8051 45.2966 44.7845L45.5548 44.8154L46.0712 44.7536C46.2433 44.8566 46.4584 44.9699 46.7166 45.0935C46.9748 45.2172 47.1039 45.3408 47.1039 45.4644L47.0071 45.588L47.1039 45.8044L47.0393 45.8662L46.9748 46.1444C46.9748 46.1856 46.9855 46.2422 47.0071 46.3143C47.0286 46.3865 47.0501 46.4637 47.0716 46.5461L47.1684 46.8552C47.1684 46.917 47.2061 47.0819 47.2814 47.3497C47.3567 47.6176 47.4051 47.7824 47.4266 47.8442L47.2975 48.8023V49.9767L47.3621 50.564L47.2007 50.873C47.1792 50.9348 47.1684 51.0276 47.1684 51.1512L47.2007 51.2439L47.1362 51.7075H47.4266V51.9238L47.233 52.0475L47.2652 52.1711L47.4266 52.1093L47.3621 52.3256C47.3405 52.3668 47.3298 52.3874 47.3298 52.3874C47.3298 52.4286 47.3513 52.4595 47.3943 52.4802C47.4374 52.5008 47.4696 52.5317 47.4912 52.5729L47.2975 53.0983C47.2975 53.1189 47.276 53.2116 47.233 53.3764L47.1362 53.5619L47.3943 53.4692L47.4266 53.6237L47.3298 53.8091L47.3621 53.9327H47.5234C47.5665 53.9327 47.5987 53.943 47.6202 53.9637L47.6848 54.0873L47.4912 54.6745C47.4481 54.7157 47.4212 54.7981 47.4105 54.9217C47.3997 55.0454 47.3943 55.1381 47.3943 55.1999L47.8462 55.9107C47.8031 56.0138 47.7493 56.0962 47.6848 56.158L47.5557 56.3125L47.7816 56.2816L47.8462 56.4362L47.7171 56.7143C47.7386 56.7143 47.7762 56.7246 47.83 56.7452C47.8838 56.7658 47.9322 56.7761 47.9752 56.7761V56.8998L47.7171 57.0543L47.8784 58.8778C47.8354 58.919 47.8031 58.9705 47.7816 59.0323L47.7171 59.125C47.6956 59.125 47.6364 59.1508 47.5396 59.2023C47.4427 59.2538 47.3352 59.3053 47.2168 59.3568C47.0985 59.4083 46.9909 59.4598 46.8941 59.5113C46.7973 59.5628 46.7489 59.5886 46.7489 59.5886V59.6504L46.6198 59.6813L45.5225 59.5577C45.458 59.6195 45.4042 59.6401 45.3611 59.6195C45.3181 59.5989 45.2966 59.6298 45.2966 59.7122L45.2321 59.5886L44.8125 59.4032L44.4575 58.9087L44.1348 57.6106L44.4575 56.9925C44.393 56.704 44.3499 56.3743 44.3284 56.0035C44.3069 55.6326 44.2961 55.272 44.2961 54.9217V53.6546V53.2528L44.3607 52.8201L44.2316 52.7892C44.2316 52.5008 44.2424 52.2174 44.2639 51.9393C44.2854 51.6611 44.2961 51.3881 44.2961 51.1203C44.2961 50.8936 44.2854 50.6876 44.2639 50.5021C44.2424 50.3167 44.2101 50.1416 44.1671 49.9767L43.2311 51.553C43.1021 51.9032 42.973 52.135 42.8439 52.2484C42.7148 52.3617 42.5749 52.5935 42.4243 52.9437C42.3167 53.1498 42.2092 53.3507 42.1016 53.5464C41.994 53.7422 41.8649 53.9224 41.7143 54.0873L41.2625 54.7672C41.1549 54.829 41.0366 54.896 40.9075 54.9681C40.7784 55.0402 40.6601 55.1072 40.5525 55.169C40.4449 55.2308 40.3535 55.2875 40.2782 55.339C40.2029 55.3905 40.176 55.4162 40.1975 55.4162C40.0684 55.4162 39.864 55.3493 39.5843 55.2154C39.3046 55.0814 39.111 54.9527 39.0034 54.829ZM35.1629 49.6677L35.0661 49.8531C35.0231 49.9767 34.9854 50.1107 34.9532 50.2549C34.9209 50.3991 34.894 50.5331 34.8725 50.6567L35.0984 50.5949L35.1629 49.6677ZM36.2602 53.7782V53.5928L36.1311 53.6855C36.1311 53.7267 36.115 53.8091 36.0827 53.9327C36.0504 54.0564 36.0343 54.1491 36.0343 54.2109V54.2418C36.1849 54.1594 36.2602 54.0049 36.2602 53.7782ZM47.4266 50.9039C47.5127 50.9039 47.5557 50.9554 47.5557 51.0585C47.5557 51.1409 47.5127 51.1821 47.4266 51.1821C47.3836 51.1821 47.3621 51.1306 47.3621 51.0276C47.3621 50.9657 47.3836 50.9245 47.4266 50.9039ZM36.2279 53.2219L36.1311 53.3455L36.0988 53.4692L36.3248 53.3146L36.2279 53.2219ZM47.5234 51.4293V51.4602C47.5234 51.5221 47.5019 51.553 47.4589 51.553C47.4374 51.553 47.4266 51.5118 47.4266 51.4293C47.4266 51.3881 47.4374 51.3675 47.4589 51.3675C47.4589 51.3675 47.4804 51.3881 47.5234 51.4293ZM60.5939 63.2046C60.5724 63.1634 60.5294 63.1068 60.4648 63.0347C60.4003 62.9625 60.368 62.8853 60.368 62.8029C60.368 62.741 60.3895 62.6998 60.4326 62.6792L60.6585 62.9574L60.7553 62.8647C60.7338 62.8441 60.723 62.8029 60.723 62.741C60.723 62.6792 60.7392 62.6071 60.7714 62.5247C60.8037 62.4423 60.8306 62.3805 60.8521 62.3393L60.6262 62.3084C60.6047 62.3084 60.5939 62.262 60.5939 62.1693C60.5939 62.0766 60.5401 61.9581 60.4326 61.8139L60.5939 61.8757C60.637 61.8345 60.6585 61.7726 60.6585 61.6902C60.6585 61.5666 60.6047 61.4533 60.4971 61.3503C60.4326 61.4121 60.4003 61.4739 60.4003 61.5357C60.4003 61.6181 60.411 61.6799 60.4326 61.7211H60.368C60.3465 61.7211 60.2927 61.7005 60.2067 61.6593C60.2067 61.7005 60.2067 61.7623 60.2067 61.8448C60.2067 61.9272 60.1959 61.989 60.1744 62.0302H60.0776C60.0345 61.989 60.013 61.9169 60.013 61.8139C60.013 61.7108 59.9915 61.6181 59.9485 61.5357L59.9807 61.5666C60.0238 61.5666 60.0399 61.4996 60.0292 61.3657C60.0184 61.2318 60.0991 61.103 60.2712 60.9794C60.2712 61.0824 60.2766 61.1597 60.2873 61.2112C60.2981 61.2627 60.3035 61.309 60.3035 61.3503C60.325 61.309 60.3357 61.2472 60.3357 61.1648C60.3357 61.0206 60.2981 60.9021 60.2228 60.8094C60.1475 60.7167 60.1098 60.6085 60.1098 60.4849C60.1098 60.4643 60.1152 60.4437 60.126 60.4231C60.1367 60.4025 60.1421 60.3819 60.1421 60.3613L59.9485 60.2685C59.9054 60.2067 59.8785 60.0831 59.8678 59.8977C59.857 59.7122 59.8409 59.5783 59.8194 59.4959C59.8194 59.5577 59.7925 59.6041 59.7387 59.635C59.6849 59.6659 59.6688 59.6813 59.6903 59.6813C59.6042 59.6401 59.5504 59.6195 59.5289 59.6195C59.4859 59.6195 59.4644 59.6401 59.4644 59.6813C59.4214 59.5989 59.3891 59.4804 59.3676 59.3259C59.346 59.1714 59.26 59.0117 59.1094 58.8468C59.0233 58.9293 58.9642 58.9756 58.9319 58.9859C58.8996 58.9962 58.8835 59.022 58.8835 59.0632C58.8835 59.0838 58.8888 59.1044 58.8996 59.125C58.9104 59.1456 58.9157 59.1765 58.9157 59.2177C58.8942 59.2177 58.8781 59.2229 58.8673 59.2332C58.8566 59.2435 58.8404 59.2486 58.8189 59.2486C58.7329 59.2486 58.6898 59.2074 58.6898 59.125L58.7867 58.3214H58.9157C58.8942 58.3008 58.862 58.2287 58.8189 58.1051C58.7113 58.1875 58.6576 58.239 58.6576 58.2596C58.6791 58.2802 58.6898 58.3008 58.6898 58.3214L58.4962 58.4142C58.4532 58.373 58.3779 58.2442 58.2703 58.0278C58.1627 57.8115 58.0982 57.6724 58.0766 57.6106L58.0121 57.2706C57.9691 57.147 57.8991 56.9976 57.8023 56.8225C57.7055 56.6474 57.6463 56.4877 57.6248 56.3434V56.2198L57.528 56.1889C57.5065 56.0859 57.485 55.988 57.4635 55.8953C57.4419 55.8026 57.4204 55.715 57.3989 55.6326L57.3021 55.4162L57.0762 55.2926L56.108 52.851C56.0435 52.7686 56.0112 52.6862 56.0112 52.6038C56.0112 52.5626 56.0166 52.5368 56.0273 52.5265C56.0381 52.5162 56.0435 52.4905 56.0435 52.4492C56.0435 52.408 56.0112 52.3256 55.9466 52.202L55.4948 52.2329C55.4518 52.2535 55.398 52.2638 55.3335 52.2638C55.355 52.2432 55.3657 52.2329 55.3657 52.2329H55.3335C55.3119 52.2329 55.2904 52.2278 55.2689 52.2174C55.2474 52.2071 55.2259 52.202 55.2044 52.202H54.7203C54.5051 52.1608 54.3384 52.1093 54.22 52.0475C54.1017 51.9857 53.9888 51.9341 53.8812 51.8929C53.7736 52.408 53.7198 52.6862 53.7198 52.7274L53.7844 53.0056L53.7198 53.0983C53.7198 53.1395 53.7091 53.1704 53.6875 53.191C53.666 53.2116 53.6553 53.2322 53.6553 53.2528L53.7198 53.3455H53.7844L53.6553 53.5928V53.8091C53.6553 54.077 53.6445 54.2779 53.623 54.4118C53.6015 54.5457 53.5746 54.6436 53.5423 54.7054C53.51 54.7672 53.4831 54.8187 53.4616 54.8599C53.4401 54.9011 53.4294 54.963 53.4294 55.0454L53.4939 55.0763C53.4724 55.1175 53.4616 55.1484 53.4616 55.169C53.4616 55.1896 53.4509 55.1999 53.4294 55.1999C53.3863 55.1999 53.3648 55.1896 53.3648 55.169C53.3433 55.1484 53.3325 55.1278 53.3325 55.1072C53.311 55.1072 53.3003 55.1793 53.3003 55.3235L53.3648 55.3853L53.268 55.6017V56.5907V56.7143C53.268 56.7555 53.2626 56.8534 53.2519 57.0079C53.2411 57.1625 53.2357 57.2603 53.2357 57.3015L53.1712 57.3633L53.2357 57.5179V57.9506L53.3003 58.0433V58.2596L53.268 58.3833L53.1066 58.5687L52.3644 58.8159L51.493 58.9396L50.7507 58.8468C50.4495 58.7644 50.2343 58.6202 50.1053 58.4142C49.9762 58.2081 49.9116 57.9918 49.9116 57.7651C49.9116 57.7033 49.9116 57.59 49.9116 57.4252C49.9116 57.2603 49.9224 57.0903 49.9439 56.9152C49.9654 56.7401 49.9869 56.5752 50.0084 56.4207C50.03 56.2662 50.0622 56.1683 50.1053 56.1271L50.1698 57.5179L50.3312 57.7033C50.3312 57.3943 50.3473 56.9616 50.3796 56.4053C50.4118 55.8489 50.5033 55.1793 50.6539 54.3963L50.6216 54.4582C50.5571 54.4582 50.5248 54.3242 50.5248 54.0564C50.5248 53.7885 50.5571 53.6546 50.6216 53.6546C50.6647 53.7782 50.6862 53.8915 50.6862 53.9946L51.1057 52.542H50.9766C50.9766 52.3977 51.0089 52.3102 51.0734 52.2793C51.138 52.2484 51.1703 52.2123 51.1703 52.1711H51.1057V51.9547C51.2778 50.7803 51.536 49.6265 51.8803 48.4932C52.2245 47.36 52.5795 46.2989 52.9453 45.3099C53.0098 45.1657 53.0797 44.9751 53.155 44.7381C53.2303 44.5012 53.2895 44.3621 53.3325 44.3209L53.5262 44.1973H53.9135C54.0856 44.1973 54.2685 44.2127 54.4621 44.2436C54.6557 44.2745 54.8386 44.29 55.0107 44.29H55.1075C55.2582 44.393 55.3604 44.5166 55.4141 44.6609C55.4679 44.8051 55.5271 44.9596 55.5916 45.1245C55.5916 45.1245 55.5863 45.1708 55.5755 45.2635C55.5647 45.3563 55.554 45.4541 55.5432 45.5571C55.5325 45.6602 55.5217 45.758 55.511 45.8508C55.5002 45.9435 55.4841 46.0001 55.4625 46.0207L56.5921 45.3408C56.6351 45.2996 56.7857 45.2429 57.0439 45.1708C57.3021 45.0987 57.5926 45.0317 57.9153 44.9699C58.238 44.9081 58.55 44.8566 58.8512 44.8154C59.1524 44.7742 59.3676 44.7536 59.4967 44.7536L59.658 44.9081H59.7871L59.7226 44.8154H59.8839C59.9054 44.8154 59.9807 44.8463 60.1098 44.9081C60.2389 44.9699 60.3142 45.0008 60.3357 45.0008C60.5509 45.0626 60.7768 45.1039 61.0135 45.1245C61.2501 45.1451 61.4653 45.2017 61.6589 45.2944C61.8526 45.3872 62.0086 45.5314 62.1269 45.7271C62.2452 45.9229 62.3044 46.2268 62.3044 46.6389L62.498 46.5152L62.5626 46.6389L62.4335 46.8243L62.498 46.9788L62.3367 47.257C62.3367 47.3188 62.3098 47.4064 62.256 47.5197C62.2022 47.633 62.1753 47.7103 62.1753 47.7515L62.2398 47.8751C62.2398 47.9163 62.1861 48.0606 62.0785 48.3078L61.9494 48.6787L62.0139 48.7405V48.9259C62.0139 48.9877 62.0193 49.0547 62.0301 49.1268C62.0408 49.1989 62.0462 49.2659 62.0462 49.3277C62.0462 49.4719 61.9924 49.5647 61.8848 49.6059V49.6986C61.8848 49.9046 61.7934 50.1364 61.6105 50.394C61.4276 50.6515 61.3147 50.8524 61.2717 50.9966V51.1512L61.1103 51.3057C61.0673 51.3469 60.9758 51.3881 60.836 51.4293C60.6961 51.4705 60.5939 51.5118 60.5294 51.553L60.2067 51.6766C60.1851 51.6766 60.1206 51.692 60.013 51.7229C59.9054 51.7539 59.7871 51.7899 59.658 51.8311C59.5289 51.8723 59.4052 51.9084 59.2869 51.9393C59.1685 51.9702 59.0986 51.9857 59.0771 51.9857C59.1201 52.2123 59.2331 52.3977 59.416 52.542C59.5989 52.6862 59.6903 52.8407 59.6903 53.0056C59.6903 53.1704 59.7441 53.3661 59.8517 53.5928C59.9592 53.8194 60.0722 54.0461 60.1905 54.2727C60.3089 54.4994 60.4218 54.6951 60.5294 54.8599C60.637 55.0248 60.6908 55.1278 60.6908 55.169V55.2926L60.6262 55.3235L60.4326 55.2308L61.1426 56.5598L61.3362 57.147L61.5944 57.3015L61.6589 57.4252L61.5621 57.5488C61.6051 57.6106 61.6858 57.7188 61.8042 57.8733C61.9225 58.0278 61.9924 58.1257 62.0139 58.1669L62.1108 58.2596L62.2076 58.5996C62.2291 58.6614 62.2398 58.7335 62.2398 58.8159L62.2721 59.125L62.4335 59.5886C62.4765 59.7534 62.5195 59.8668 62.5626 59.9286L62.7885 60.6085L62.5948 60.7321L62.498 60.8867L62.6594 61.103L62.7562 61.0412L62.9498 61.1339L63.0789 61.4121L63.1758 61.3194L63.5308 62.2774V62.3393C63.5308 62.4011 63.5469 62.468 63.5792 62.5401C63.6114 62.6123 63.6276 62.6998 63.6276 62.8029C63.6276 62.8441 63.5953 62.8853 63.5308 62.9265C63.4662 62.9677 63.4339 63.0604 63.4339 63.2046C63.2833 63.1428 63.1865 63.0913 63.1435 63.0501C63.1005 63.0089 63.0682 62.9883 63.0467 62.9883C62.9391 62.9883 62.8315 63.0295 62.7239 63.1119C62.6164 63.1943 62.5626 63.2664 62.5626 63.3283C62.5626 63.4313 62.5733 63.4931 62.5948 63.5137L62.3689 63.4828L62.3367 63.2974C62.2936 63.2974 62.2667 63.3025 62.256 63.3128C62.2452 63.3231 62.2291 63.3283 62.2076 63.3283C62.1861 63.3283 62.1699 63.3231 62.1592 63.3128C62.1484 63.3025 62.1323 63.2974 62.1108 63.2974V63.4519C62.1108 63.4725 62.1215 63.4828 62.143 63.4828H62.1108L61.9817 63.2664C61.9601 63.3283 61.8902 63.3849 61.7719 63.4364C61.6536 63.4879 61.5406 63.5137 61.433 63.5137L61.3685 63.3901C61.2824 63.3901 61.2071 63.4519 61.1426 63.5755C60.9489 63.4931 60.7661 63.3695 60.5939 63.2046ZM54.5266 49.8531C54.4836 49.8943 54.4298 50.0128 54.3653 50.2085C54.3007 50.4043 54.2254 50.6361 54.1394 50.9039C54.5051 50.7597 54.8655 50.703 55.2205 50.7339C55.5755 50.7649 55.9036 50.7391 56.2048 50.6567C56.3339 50.6361 56.5383 50.5794 56.818 50.4867C57.0977 50.394 57.3129 50.327 57.4635 50.2858C57.6141 50.2034 57.7808 50.1519 57.9637 50.1313C58.1466 50.1107 58.3187 50.0746 58.4801 50.0231C58.6414 49.9716 58.7813 49.8737 58.8996 49.7295C59.0179 49.5853 59.0771 49.3586 59.0771 49.0496C59.1201 48.7405 59.1632 48.4984 59.2062 48.3233C59.2492 48.1481 59.2923 47.9833 59.3353 47.8288C59.3783 47.6742 59.416 47.5042 59.4482 47.3188C59.4805 47.1334 59.4967 46.8861 59.4967 46.577C59.3245 46.577 59.1685 46.608 59.0287 46.6698C58.8888 46.7316 58.7221 46.7625 58.5285 46.7625C58.4209 46.7625 58.3187 46.7676 58.2219 46.7779C58.1251 46.7882 58.0229 46.7728 57.9153 46.7316L57.883 46.7007L57.6894 46.7625C57.5818 46.8449 57.4258 46.917 57.2214 46.9788C57.017 47.0406 56.8126 47.0973 56.6082 47.1488C56.4038 47.2003 56.2263 47.257 56.0757 47.3188C55.9251 47.3806 55.8498 47.4424 55.8498 47.5042L55.4625 47.5661L55.2366 47.5351H55.0107C55.0107 47.5764 54.9946 47.633 54.9623 47.7051C54.93 47.7772 54.9139 47.8339 54.9139 47.8751L54.9785 48.0606C54.9785 48.0193 55.0054 47.9884 55.0591 47.9678C55.1129 47.9472 55.1506 47.9369 55.1721 47.9369C55.1721 48.2254 55.0914 48.5396 54.93 48.8796C54.7687 49.2195 54.6342 49.5441 54.5266 49.8531ZM61.1103 60.9794L61.078 61.1339C61.1211 61.2369 61.1748 61.2884 61.2394 61.2884C61.2609 61.2884 61.2717 61.2472 61.2717 61.1648C61.2717 61.0412 61.2609 60.8867 61.2394 60.7012C61.2179 60.5158 61.1748 60.3303 61.1103 60.1449C61.0457 59.9595 60.9597 59.7998 60.8521 59.6659C60.7445 59.5319 60.5939 59.465 60.4003 59.465V59.6195C60.5079 59.7225 60.5778 59.7689 60.6101 59.7586C60.6423 59.7483 60.7445 59.774 60.9167 59.8358L60.7553 60.0831V60.114C60.7553 60.1552 60.7983 60.2067 60.8844 60.2685C60.9704 60.3303 61.0135 60.4334 61.0135 60.5776C61.0135 60.6806 60.9812 60.7939 60.9167 60.9176C60.9167 60.9176 60.9812 60.9382 61.1103 60.9794ZM58.948 59.4032C59.0556 59.4856 59.1201 59.5886 59.1417 59.7122C59.1632 59.8358 59.1739 59.8771 59.1739 59.8358C59.1739 59.9595 59.1632 60.0419 59.1417 60.0831C59.0556 59.9183 58.9857 59.7895 58.9319 59.6968C58.8781 59.6041 58.8512 59.5371 58.8512 59.4959C58.8512 59.4341 58.8835 59.4032 58.948 59.4032ZM50.1053 54.9217V55.8798H49.9762C49.9762 55.8592 49.9815 55.8077 49.9923 55.7253C50.0031 55.6429 50.0138 55.545 50.0246 55.4317C50.0353 55.3184 50.0461 55.2154 50.0568 55.1226C50.0676 55.0299 50.0837 54.963 50.1053 54.9217ZM60.8844 61.9066L60.7553 61.9684C60.8198 62.0302 60.8736 62.0611 60.9167 62.0611L60.8844 61.9066ZM59.7226 59.9286L59.6257 59.8049C59.7333 59.8049 59.7871 59.8255 59.7871 59.8668L59.7226 59.9286ZM60.9812 61.5357L61.1103 61.5048C61.0888 61.5048 61.0565 61.4533 61.0135 61.3503L60.9812 61.5357ZM73.9226 55.8798L74.0517 55.9726L74.2776 56.3125L74.1485 56.4671L74.4067 56.8998L74.0517 57.147L72.7931 57.5797C72.6855 57.6209 72.594 57.6415 72.5187 57.6415C72.4434 57.6415 72.3735 57.6621 72.309 57.7033H71.3085C71.0503 57.7445 70.8513 57.8063 70.7115 57.8888C70.5716 57.9712 70.3188 58.0124 69.9531 58.0124H69.7594C69.6734 58.0124 69.5927 57.9969 69.5174 57.966C69.4421 57.9351 69.3399 57.9197 69.2108 57.9197C69.1677 57.9197 69.044 57.9403 68.8396 57.9815C68.6352 58.0227 68.5115 58.0433 68.4685 58.0433H67.113C66.8333 58.0433 66.5483 57.9454 66.2578 57.7497C65.9674 57.5539 65.6715 57.4149 65.3703 57.3324L65.3058 57.0852L64.6603 56.2507C64.6388 56.2301 64.6173 56.2095 64.5958 56.1889C64.5742 56.1683 64.5635 56.1065 64.5635 56.0035C64.5635 55.612 64.628 55.2257 64.7571 54.8445C64.8862 54.4633 64.9508 54.1285 64.9508 53.84L65.0476 53.7164C65.0476 53.4279 65.0422 53.2786 65.0314 53.2683C65.0207 53.258 64.9938 53.2116 64.9508 53.1292C64.9508 53.0468 64.983 52.9747 65.0476 52.9128C65.0261 52.8922 65.0153 52.8716 65.0153 52.851C65.0153 52.8098 65.0476 52.7532 65.1121 52.681C65.1767 52.6089 65.2089 52.5523 65.2089 52.5111L65.1121 52.4492C65.2627 52.099 65.3596 51.8311 65.4026 51.6457C65.4456 51.4602 65.4994 51.2542 65.5639 51.0276C65.5639 50.7597 65.5908 50.6 65.6446 50.5485C65.6984 50.497 65.7576 50.4661 65.8221 50.4558C65.8867 50.4455 65.9458 50.4249 65.9996 50.394C66.0534 50.3631 66.0803 50.2446 66.0803 50.0386C66.1449 49.8119 66.2417 49.5492 66.3708 49.2504C66.4999 48.9517 66.6774 48.6735 66.9033 48.416C67.1292 48.1584 67.4143 47.9421 67.7585 47.7669C68.1027 47.5918 68.5223 47.5042 69.0171 47.5042C69.1677 47.5248 69.2861 47.5351 69.3721 47.5351C69.4582 47.5351 69.5335 47.5351 69.598 47.5351H69.8562H69.9531L69.7917 47.7206L69.1785 47.8133C69.5227 47.8133 69.9046 47.8545 70.3242 47.9369C70.7437 48.0193 71.1471 48.0606 71.5344 48.0606C71.5344 47.9575 71.4699 47.8906 71.3408 47.8597C71.2117 47.8288 71.0665 47.803 70.9051 47.7824C70.7437 47.7618 70.5878 47.7463 70.4371 47.736C70.2865 47.7257 70.1897 47.6897 70.1467 47.6279C70.1682 47.6279 70.2166 47.6176 70.2919 47.597C70.3672 47.5764 70.4264 47.5661 70.4694 47.5661L70.8567 47.597L70.9212 47.5351C71.1364 47.5351 71.2978 47.5506 71.4053 47.5815C71.5129 47.6124 71.6043 47.6485 71.6796 47.6897C71.755 47.7309 71.841 47.7669 71.9378 47.7978C72.0347 47.8288 72.1799 47.8442 72.3735 47.8442H73.5676L73.7612 47.906C73.8903 47.9472 73.9656 47.9678 73.9872 47.9678L73.8903 48.0915L73.9872 48.246V48.4005L73.729 48.6478L73.9549 48.9259L73.4385 49.235C73.3309 49.2968 73.175 49.3689 72.9706 49.4513C72.7662 49.5338 72.5994 49.575 72.4703 49.575C72.3197 49.575 72.2122 49.5698 72.1476 49.5595C72.0831 49.5492 72.0185 49.5441 71.954 49.5441C71.8894 49.5441 71.8087 49.5389 71.7119 49.5286C71.6151 49.5183 71.4591 49.5131 71.244 49.5131C70.8997 49.5131 70.5985 49.5956 70.3403 49.7604C70.0821 49.9252 69.8562 50.1158 69.6626 50.3322C69.469 50.5485 69.2968 50.7649 69.1462 50.9812C68.9956 51.1975 68.8558 51.3572 68.7267 51.4602L68.759 51.5221C68.759 51.8105 68.6621 52.1196 68.4685 52.4492C68.2749 52.7789 68.1135 53.0468 67.9844 53.2528L67.9199 53.4073L67.9844 53.531C67.9414 53.7164 67.8768 53.8812 67.7908 54.0255C67.7047 54.1697 67.6617 54.3448 67.6617 54.5509L67.7262 54.6436L67.6617 54.7981L67.823 54.8599C67.694 54.9836 67.6294 55.1072 67.6294 55.2308C67.6294 55.4575 67.7155 55.6068 67.8876 55.679C68.0597 55.7511 68.1458 55.8489 68.1458 55.9726L69.1462 56.158L69.3721 56.4053L70.1144 56.2198L70.4371 56.0653L71.8894 55.9417C71.9325 55.9417 72.04 55.9468 72.2122 55.9571C72.3843 55.9674 72.5026 55.9726 72.5672 55.9726H72.7608C72.8038 55.9726 72.8415 55.9777 72.8737 55.988C72.906 55.9983 72.9437 56.0035 72.9867 56.0035C73.0082 56.0035 73.0244 55.9983 73.0351 55.988C73.0459 55.9777 73.062 55.9726 73.0835 55.9726L73.9226 55.8798ZM77.989 52.4183C77.9244 52.2329 77.8707 52.0578 77.8276 51.8929C77.7846 51.7487 77.7469 51.6251 77.7147 51.5221C77.6824 51.419 77.6447 51.3675 77.6017 51.3675L77.5372 51.0585L77.5049 51.0276C77.5049 50.9657 77.5641 50.9142 77.6824 50.873C77.8007 50.8318 77.8707 50.8112 77.8922 50.8112L78.7958 50.7803C79.097 50.7597 79.4036 50.7494 79.7156 50.7494C80.0276 50.7494 80.3341 50.7185 80.6354 50.6567H84.7986C85.358 50.6567 85.955 50.6824 86.5897 50.7339C87.2244 50.7855 87.8107 50.9554 88.3486 51.2439C88.4131 51.3057 88.4669 51.3366 88.5099 51.3366V52.4183C88.3378 52.5214 88.1711 52.6501 88.0097 52.8047C87.8483 52.9592 87.7139 53.0468 87.6063 53.0674C87.5848 53.0674 87.5525 53.0468 87.5095 53.0056L87.3804 52.9437C87.4019 52.9437 87.3481 52.9643 87.219 53.0056L87.1222 53.0674C86.821 53.0674 86.5413 53.0107 86.2831 52.8974C86.0249 52.7841 85.7775 52.7274 85.5408 52.7274C85.3902 52.7274 85.2558 52.7377 85.1374 52.7583C85.0191 52.7789 84.8846 52.7892 84.734 52.7892V52.6965H84.1208C83.9487 52.6965 83.782 52.7223 83.6206 52.7738C83.4592 52.8253 83.2925 52.851 83.1204 52.851C83.0343 52.851 82.9429 52.8407 82.8461 52.8201C82.7492 52.7995 82.647 52.7892 82.5395 52.7892C82.4104 52.7892 82.2867 52.8201 82.1683 52.8819C82.05 52.9437 81.9155 52.9747 81.7649 52.9747C81.6789 52.9747 81.5928 52.9592 81.5067 52.9283C81.4207 52.8974 81.3346 52.8819 81.2485 52.8819C81.0119 52.8819 80.7914 52.9437 80.587 53.0674C80.3826 53.191 80.1835 53.2528 79.9899 53.2528C79.8393 53.2528 79.651 53.2271 79.4251 53.1755C79.1992 53.124 79.0217 53.0983 78.8926 53.0983C78.8281 53.0983 78.7851 53.1086 78.7635 53.1292C78.5914 53.0056 78.4462 52.8819 78.3279 52.7583C78.2095 52.6347 78.0966 52.5214 77.989 52.4183ZM90.5431 55.7253C90.5431 55.5811 90.5754 55.3493 90.6399 55.0299C90.7045 54.7106 90.7959 54.3706 90.9143 54.01C91.0326 53.6494 91.1778 53.3198 91.3499 53.021C91.5221 52.7223 91.7049 52.5214 91.8986 52.4183L91.9954 52.5111C91.8448 52.6759 91.6888 52.8922 91.5275 53.1601C91.3661 53.4279 91.2854 53.6752 91.2854 53.9018V54.1491C91.3284 54.0049 91.4199 53.7937 91.5597 53.5155C91.6996 53.2374 91.7695 53.0365 91.7695 52.9128V52.851C91.9416 52.645 92.0707 52.5111 92.1568 52.4492C92.2428 52.3874 92.3719 52.2535 92.544 52.0475L93.0604 51.6148C93.3401 51.4087 93.6467 51.2542 93.9802 51.1512C94.3137 51.0482 94.631 50.976 94.9322 50.9348L95.5777 50.873C95.7068 50.873 95.9004 50.8988 96.1586 50.9503C96.4168 51.0018 96.6642 51.0739 96.9009 51.1666C97.1375 51.2594 97.3473 51.3675 97.5302 51.4911C97.7131 51.6148 97.8045 51.7487 97.8045 51.8929C97.8045 52.0372 97.6808 52.1453 97.4334 52.2174C97.186 52.2896 96.9009 52.3411 96.5782 52.372C96.2554 52.4029 95.9273 52.4286 95.5938 52.4492C95.2603 52.4698 95.0075 52.5111 94.8354 52.5729L94.0609 53.9946L94.0931 54.0564C93.9856 54.283 93.8726 54.5148 93.7543 54.7518C93.6359 54.9887 93.5768 55.1278 93.5768 55.169V55.818L93.7059 56.0344H93.9963C94.4697 56.0344 94.9538 56.0189 95.4486 55.988C95.9435 55.9571 96.5674 55.8798 97.3204 55.7562L97.2881 56.0035L97.1913 56.158C97.1913 56.1992 97.229 56.2301 97.3043 56.2507C97.3796 56.2713 97.4388 56.2816 97.4818 56.2816C97.4388 56.3228 97.4172 56.3743 97.4172 56.4362C97.4172 56.4774 97.428 56.5083 97.4495 56.5289C97.471 56.5495 97.4818 56.5804 97.4818 56.6216C97.4818 56.7246 97.4065 56.8225 97.2559 56.9152C97.1053 57.0079 96.9331 57.0955 96.7395 57.1779C96.5459 57.2603 96.3576 57.3221 96.1747 57.3633C95.9919 57.4046 95.8681 57.4252 95.8036 57.4252L94.19 57.6415C94.1254 57.6209 94.0286 57.6106 93.8995 57.6106C93.7919 57.6106 93.7005 57.6157 93.6252 57.626C93.5499 57.6364 93.4692 57.6415 93.3831 57.6415C93.1465 57.6415 93.012 57.6106 92.9797 57.5488C92.9475 57.487 92.8883 57.4458 92.8022 57.4252C92.458 57.3633 92.1675 57.2809 91.9309 57.1779C91.6942 57.0749 91.5113 56.9719 91.3822 56.8688C91.3392 56.8276 91.2693 56.7555 91.1724 56.6525C91.0756 56.5495 90.9788 56.4413 90.882 56.328C90.7852 56.2147 90.7045 56.1013 90.6399 55.988C90.5754 55.8747 90.5431 55.7871 90.5431 55.7253ZM91.5436 54.3654L91.5113 54.2109C91.5113 54.2521 91.5006 54.3036 91.479 54.3654C91.4575 54.4272 91.4468 54.4788 91.4468 54.52L91.5113 54.6745C91.5328 54.6333 91.5436 54.5303 91.5436 54.3654ZM91.5113 54.0255L91.5759 54.0873C91.5759 54.0461 91.5866 53.9946 91.6081 53.9327C91.6296 53.8709 91.6404 53.8194 91.6404 53.7782V53.7164C91.5543 53.7782 91.5113 53.8812 91.5113 54.0255ZM104.033 46.8861L104.065 46.9479C104.022 47.1128 103.963 47.2364 103.888 47.3188C103.813 47.4012 103.753 47.5661 103.71 47.8133L103.743 47.9369C103.743 48.0193 103.7 48.1069 103.614 48.1996C103.528 48.2923 103.485 48.3593 103.485 48.4005L103.388 49.6368C103.388 49.6986 103.382 49.7604 103.372 49.8222C103.361 49.884 103.355 49.9458 103.355 50.0076V50.2549C103.355 50.3579 103.312 50.4815 103.226 50.6258L103.291 50.9348V50.9039L103.323 50.9657C103.259 51.0688 103.221 51.1306 103.21 51.1512C103.199 51.1718 103.183 51.2233 103.162 51.3057L103.259 51.3675C103.259 51.4911 103.248 51.5633 103.226 51.5839L103.065 52.0475C103.065 52.0887 103.033 52.1402 102.968 52.202L102.807 52.1402L102 53.0365H102.065C102.108 53.0365 102.183 53.0107 102.29 52.9592C102.398 52.9077 102.506 52.8613 102.613 52.8201C102.742 52.7583 102.882 52.6862 103.033 52.6038C103.033 52.7686 103.006 52.9077 102.952 53.021C102.898 53.1343 102.861 53.2631 102.839 53.4073L102.775 53.9327L102.839 54.18L102.581 54.2109L102.161 54.3654L102.194 54.4891L102.484 54.7981L102.742 54.4272L102.871 54.5509L102.936 54.9217L103.097 55.0454V55.7253L102.968 55.8798H102.581L102.516 56.4671H102.871C102.914 56.4877 102.952 56.5237 102.984 56.5752C103.017 56.6267 103.054 56.6628 103.097 56.6834L105.195 58.1669L105.421 58.3214V58.7232L104.517 59.125C104.388 59.125 104.313 59.1199 104.291 59.1096C104.27 59.0992 104.243 59.0889 104.211 59.0786C104.178 59.0683 104.108 59.0426 104.001 59.0014C103.893 58.9602 103.678 58.9087 103.355 58.8468C103.269 58.8056 103.226 58.785 103.226 58.785C103.205 58.785 103.194 58.7902 103.194 58.8005C103.194 58.8108 103.183 58.8159 103.162 58.8159C103.119 58.8159 103.076 58.8056 103.033 58.785L102.775 58.6614C102.775 58.682 102.731 58.6923 102.645 58.6923C102.43 58.6923 102.274 58.6769 102.177 58.646C102.081 58.6151 101.989 58.5481 101.903 58.4451L100.612 57.8269C100.612 57.8269 100.575 57.7909 100.499 57.7188C100.424 57.6467 100.349 57.5642 100.273 57.4715C100.198 57.3788 100.123 57.2964 100.047 57.2243C99.9722 57.1522 99.9345 57.1058 99.9345 57.0852L99.7409 56.0344C99.7409 55.9726 99.7624 55.8953 99.8054 55.8026C99.8485 55.7099 99.87 55.6223 99.87 55.5399C99.87 55.4369 99.8538 55.3647 99.8216 55.3235C99.7893 55.2823 99.7732 55.2102 99.7732 55.1072V55.0145V54.9836C99.7732 54.9424 99.7839 54.9011 99.8054 54.8599C99.827 54.8187 99.8377 54.7672 99.8377 54.7054C99.8162 54.6848 99.8054 54.6642 99.8054 54.6436L99.7732 54.4891L99.9345 54.1491C99.9345 54.1285 99.9399 54.113 99.9507 54.1027C99.9614 54.0924 99.9668 54.077 99.9668 54.0564V53.9946C99.9668 53.9327 99.9345 53.8967 99.87 53.8864C99.8054 53.8761 99.7732 53.84 99.7732 53.7782L99.9991 53.2219V52.9437C99.9991 52.8407 99.9937 52.7377 99.9829 52.6347C99.9722 52.5317 99.9668 52.408 99.9668 52.2638C100.031 51.8517 100.096 51.5272 100.16 51.2903C100.225 51.0533 100.311 50.7288 100.419 50.3167C100.462 50.3167 100.483 50.2858 100.483 50.224C100.483 50.1622 100.462 50.1158 100.419 50.0849C100.376 50.054 100.354 49.9458 100.354 49.7604C100.354 49.5956 100.413 49.3174 100.532 48.9259C100.65 48.5344 100.709 48.1636 100.709 47.8133H100.58C100.623 47.5867 100.661 47.3549 100.693 47.1179C100.725 46.881 100.784 46.6286 100.87 46.3607L101 45.9589C101.086 45.7735 101.129 45.6499 101.129 45.588L101.258 44.939L101.419 44.7845C101.527 44.8051 101.726 44.8257 102.016 44.8463C102.307 44.8669 102.506 44.8978 102.613 44.939C102.699 44.8566 102.807 44.8154 102.936 44.8154H103.323L104.291 45.1863L104.162 45.6808C104.162 45.7838 104.205 45.9126 104.291 46.0671C104.377 46.2216 104.42 46.3298 104.42 46.3916L104.033 46.8861ZM103.388 56.0035L103.452 55.7562H104.033L103.646 55.8798L103.517 56.2507L103.388 56.0035ZM100.87 47.4115C100.827 47.4115 100.806 47.4836 100.806 47.6279C100.806 47.7309 100.838 47.7824 100.903 47.7824C100.967 47.7824 101 47.7206 101 47.597C101 47.4733 100.956 47.4115 100.87 47.4115ZM103.065 51.2748L102.871 51.4911V51.553C102.871 51.6148 102.893 51.6457 102.936 51.6457C102.979 51.6457 103.033 51.5839 103.097 51.4602C103.076 51.4396 103.065 51.4087 103.065 51.3675V51.2748ZM101 46.8861C100.913 46.9067 100.87 46.9479 100.87 47.0097C100.87 47.0716 100.913 47.1025 101 47.1025C101.086 47.1025 101.129 47.0716 101.129 47.0097C101.129 46.9273 101.086 46.8861 101 46.8861ZM103.033 56.1889H103.162V56.3125H103L103.033 56.1889ZM114.167 52.1711L114.102 51.7693L114.264 51.3984L114.36 51.553L114.296 51.6766L114.36 51.9857H114.522L114.78 51.2439L114.748 51.0894L114.522 51.1512C114.543 51.1306 114.554 51.0997 114.554 51.0585C114.554 51.0173 114.543 50.9863 114.522 50.9657C114.5 50.9451 114.468 50.8833 114.425 50.7803L114.651 50.224V49.9767C114.651 49.8737 114.694 49.8222 114.78 49.8222L114.748 49.3895H114.845C114.888 49.3895 114.941 49.3586 115.006 49.2968L115.91 49.3895L116.2 49.2659L116.62 49.3895L116.749 49.2968L116.845 49.3586H117.007L117.555 49.7913V49.884L117.91 50.0695C117.932 50.1313 117.964 50.2034 118.007 50.2858C118.05 50.3682 118.072 50.43 118.072 50.4712L118.104 50.564L118.007 50.6258L117.943 50.9966C117.943 51.0585 117.91 51.1357 117.846 51.2284C117.781 51.3212 117.749 51.4087 117.749 51.4911L117.62 52.1402C117.62 52.202 117.566 52.3359 117.459 52.542C117.351 52.748 117.297 52.8922 117.297 52.9747V53.3764C117.297 53.4589 117.233 53.6597 117.104 53.9791C116.975 54.2985 116.91 54.6539 116.91 55.0454V55.2926C116.91 55.3338 116.899 55.3544 116.878 55.3544L116.845 55.3235C116.802 55.3029 116.781 55.2926 116.781 55.2926V55.3235L116.62 55.5399V56.2198L116.49 56.5289L116.62 57.1779V57.6106C116.62 57.7548 116.609 57.8836 116.587 57.9969C116.566 58.1102 116.534 58.1669 116.49 58.1669H116.329C116.114 58.2699 115.893 58.3111 115.668 58.2905C115.442 58.2699 115.178 58.3523 114.877 58.5378H114.715C114.479 58.5378 114.296 58.4863 114.167 58.3833L113.36 57.8888V56.8379C113.016 57.044 112.715 57.2294 112.456 57.3943C112.198 57.5591 111.8 57.6621 111.262 57.7033L110.552 57.7651L110.294 57.7342L110.133 57.8269L110.068 57.6724C110.025 57.6724 109.955 57.6673 109.858 57.657C109.762 57.6467 109.681 57.6415 109.616 57.6415H109.52C109.39 57.6415 109.218 57.5951 109.003 57.5024C108.788 57.4097 108.578 57.2861 108.374 57.1315C108.169 56.977 107.992 56.7967 107.841 56.5907C107.691 56.3846 107.605 56.1683 107.583 55.9417L107.357 55.2926L107.519 54.8599L107.551 54.0873C107.551 54.0255 107.562 53.943 107.583 53.84C107.605 53.737 107.626 53.6546 107.648 53.5928C107.648 53.5722 107.642 53.5464 107.632 53.5155C107.621 53.4846 107.615 53.4589 107.615 53.4382L107.745 53.0365V52.9747V52.7583C107.745 52.6759 107.755 52.6244 107.777 52.6038L107.874 52.4183C107.895 52.3565 107.911 52.2587 107.922 52.1247C107.933 51.9908 107.938 51.9032 107.938 51.862L108.035 51.6148L108.325 51.1512V50.9657C108.368 50.8009 108.412 50.5897 108.455 50.3322C108.498 50.0746 108.637 49.9458 108.874 49.9458C109.046 49.9458 109.234 50.0076 109.439 50.1313C109.643 50.2549 109.832 50.4043 110.004 50.5794C110.176 50.7546 110.321 50.9348 110.439 51.1203C110.558 51.3057 110.617 51.4602 110.617 51.5839C110.617 51.7899 110.563 51.996 110.455 52.202C110.348 52.408 110.294 52.6656 110.294 52.9747L110.326 53.1601L109.842 55.169L109.971 55.5399C110.014 55.6429 110.057 55.7459 110.1 55.8489C110.144 55.952 110.23 56.0035 110.359 56.0035C110.983 56.0035 111.558 55.9004 112.085 55.6944C112.612 55.4884 113.048 55.1793 113.392 54.7672L113.489 54.6436C113.489 54.6024 113.489 54.556 113.489 54.5045C113.489 54.453 113.5 54.4066 113.521 54.3654C113.543 54.3036 113.564 54.2521 113.586 54.2109L113.65 54.3345L114.328 53.8709C114.307 53.8297 114.301 53.7937 114.312 53.7628C114.323 53.7319 114.296 53.6958 114.231 53.6546C114.167 53.7164 114.113 53.7473 114.07 53.7473C114.092 53.7473 113.995 53.7267 113.78 53.6855C113.78 53.4795 113.833 53.3198 113.941 53.2064C114.049 53.0931 114.113 52.985 114.135 52.8819H114.102C114.038 52.8819 113.973 52.8201 113.909 52.6965C113.866 52.6965 113.833 52.7068 113.812 52.7274C113.79 52.748 113.769 52.7583 113.747 52.7583C113.79 52.6965 113.871 52.5986 113.989 52.4647C114.108 52.3308 114.167 52.2329 114.167 52.1711ZM114.264 53.4692C114.307 53.4898 114.328 53.5001 114.328 53.5001C114.393 53.5001 114.441 53.4485 114.473 53.3455C114.506 53.2425 114.576 53.0777 114.683 52.851C114.597 52.851 114.506 52.9283 114.409 53.0828C114.312 53.2374 114.264 53.3661 114.264 53.4692ZM114.135 52.6965V52.542H114.038L114.005 52.5729C114.005 52.5729 114.049 52.6141 114.135 52.6965ZM114.36 52.3565L114.393 52.4183L114.457 52.2329L114.36 52.3565ZM120.073 56.5907C120.073 56.5701 120.078 56.498 120.089 56.3743C120.1 56.2507 120.11 56.1219 120.121 55.988C120.132 55.8541 120.143 55.7305 120.153 55.6171C120.164 55.5038 120.17 55.4266 120.17 55.3853L120.331 55.0454C120.331 55.0042 120.363 54.9372 120.428 54.8445C120.492 54.7518 120.525 54.6848 120.525 54.6436L120.654 54.7363V54.2109L120.783 53.9637C120.783 53.943 120.777 53.9224 120.767 53.9018C120.756 53.8812 120.751 53.8503 120.751 53.8091C120.751 53.7473 120.756 53.6803 120.767 53.6082C120.777 53.5361 120.783 53.4795 120.783 53.4382C120.675 53.4382 120.611 53.4485 120.589 53.4692L120.525 53.5001L120.396 53.4382C120.396 53.3764 120.406 53.3249 120.428 53.2837L120.492 53.0674C120.535 52.7789 120.573 52.5008 120.605 52.2329C120.638 51.965 120.654 51.6869 120.654 51.3984L121.106 48.3696C121.106 48.3284 121.111 48.2254 121.122 48.0606C121.132 47.8957 121.159 47.7206 121.202 47.5351L121.331 46.7934L121.461 46.4225C121.461 46.3607 121.514 46.2319 121.622 46.0362C121.729 45.8405 121.783 45.7117 121.783 45.6499V45.5262V45.4335C121.783 45.1451 121.918 44.9802 122.187 44.939C122.456 44.8978 122.751 44.836 123.074 44.7536L123.236 44.8463C123.322 44.9493 123.397 44.9854 123.461 44.9545C123.526 44.9236 123.655 44.9905 123.849 45.1554L124.204 45.4335L124.365 45.6499V45.8044C124.365 45.8456 124.37 45.8868 124.381 45.928C124.392 45.9692 124.397 46.0104 124.397 46.0516L124.43 46.268C124.43 46.5564 124.354 46.8088 124.204 47.0252C124.053 47.2415 123.978 47.4939 123.978 47.7824V47.906L123.849 48.1533C123.827 48.2563 123.816 48.3696 123.816 48.4932C123.816 48.6169 123.816 48.7199 123.816 48.8023L123.849 48.9259C123.849 48.9671 123.833 49.1165 123.8 49.3741C123.768 49.6316 123.752 49.781 123.752 49.8222L123.816 49.9458C123.816 50.0076 123.795 50.0386 123.752 50.0386L123.816 50.1004V51.1512C123.773 51.1512 123.752 51.1718 123.752 51.213V51.3984L123.849 51.3366C123.827 51.3778 123.811 51.4654 123.8 51.5993C123.79 51.7332 123.752 51.9135 123.687 52.1402C123.773 52.0372 123.908 51.9341 124.091 51.8311C124.274 51.7281 124.478 51.6354 124.704 51.553C124.93 51.4705 125.172 51.3984 125.43 51.3366C125.688 51.2748 125.925 51.213 126.14 51.1512C126.162 51.1306 126.237 51.11 126.366 51.0894C126.495 51.0688 126.592 51.0379 126.656 50.9966L127.044 51.0585H127.173C127.259 51.0585 127.334 51.0379 127.399 50.9966L127.98 51.0894L128.851 51.9547L128.916 52.2329L129.045 52.8201L129.012 52.9437H129.077C129.055 52.985 129.045 53.0056 129.045 53.0056C129.045 53.0262 129.05 53.0416 129.061 53.0519C129.072 53.0622 129.077 53.088 129.077 53.1292V53.2219C129.077 53.2631 129.066 53.3095 129.045 53.361C129.023 53.4125 129.012 53.4589 129.012 53.5001L129.045 53.6237C129.045 53.7267 129.028 53.84 128.996 53.9637C128.964 54.0873 128.937 54.1903 128.916 54.2727L128.786 54.4272C128.786 54.4891 128.808 54.52 128.851 54.52C128.851 54.6642 128.835 54.793 128.803 54.9063C128.77 55.0196 128.754 55.0866 128.754 55.1072V55.169C128.754 55.1484 128.765 55.1381 128.786 55.1381V55.169L128.69 55.4781L128.625 55.5399L128.69 55.818C128.69 55.9004 128.668 56.0601 128.625 56.2971C128.582 56.534 128.561 56.6731 128.561 56.7143L128.367 57.5488C128.324 57.6724 128.184 57.7754 127.947 57.8578C127.711 57.9403 127.549 58.0124 127.463 58.0742L126.882 58.1669C126.775 58.1669 126.608 58.1721 126.382 58.1824C126.156 58.1927 125.893 58.1978 125.591 58.1978C125.161 58.1978 124.747 58.1721 124.349 58.1206C123.951 58.069 123.752 57.93 123.752 57.7033C123.451 57.7033 123.236 57.5591 123.106 57.2706C123.106 57.2912 123.101 57.317 123.09 57.3479C123.08 57.3788 123.074 57.4355 123.074 57.5179C123.074 57.6415 123.085 57.7445 123.106 57.8269C123.042 57.9094 122.972 58.0124 122.897 58.136C122.821 58.2596 122.751 58.342 122.687 58.3833C122.644 58.3626 122.606 58.3266 122.574 58.2751C122.542 58.2236 122.504 58.1978 122.461 58.1978C122.418 58.1978 122.364 58.2287 122.3 58.2905C121.977 58.1051 121.681 58.0124 121.412 58.0124C121.143 58.0124 120.906 57.9969 120.702 57.966C120.498 57.9351 120.336 57.8475 120.218 57.7033C120.1 57.5591 120.041 57.2706 120.041 56.8379C120.041 56.7967 120.046 56.7555 120.057 56.7143C120.067 56.6731 120.073 56.6319 120.073 56.5907ZM123.042 56.7452L123.106 56.807C123.623 56.7658 124.112 56.6834 124.575 56.5598C125.037 56.4362 125.452 56.3228 125.817 56.2198L126.011 56.158C126.054 56.1374 126.086 56.1271 126.108 56.1271C126.129 56.1271 126.151 56.1168 126.172 56.0962L126.301 55.6017L126.624 52.9128V52.4802C126.474 52.542 126.275 52.6089 126.027 52.681C125.78 52.7532 125.527 52.8356 125.269 52.9283C125.011 53.021 124.774 53.1292 124.559 53.2528C124.344 53.3764 124.204 53.5104 124.139 53.6546C124.118 53.6958 124.107 53.737 124.107 53.7782C124.107 53.8194 124.096 53.8503 124.075 53.8709L123.332 54.7981L123.236 55.2308V55.3235C123.236 55.3441 123.225 55.4059 123.203 55.509C123.182 55.612 123.171 55.6841 123.171 55.7253C123.171 55.7459 123.192 55.7562 123.236 55.7562C123.236 55.7974 123.225 55.8541 123.203 55.9262C123.182 55.9983 123.171 56.055 123.171 56.0962L123.042 56.7452ZM121.428 53.8709L121.331 53.9018L121.235 54.0873C121.235 54.1697 121.208 54.2933 121.154 54.4582C121.1 54.623 121.073 54.726 121.073 54.7672C121.073 54.8084 121.079 54.8342 121.089 54.8445C121.1 54.8548 121.106 54.8805 121.106 54.9217V55.1072H121.235L121.331 54.8908C121.331 54.829 121.353 54.7415 121.396 54.6281C121.439 54.5148 121.461 54.4169 121.461 54.3345C121.461 54.2933 121.455 54.247 121.444 54.1955C121.434 54.1439 121.428 54.0976 121.428 54.0564V53.8709ZM120.654 55.0454H120.557C120.492 55.0866 120.449 55.1484 120.428 55.2308C120.406 55.3132 120.396 55.3647 120.396 55.3853V55.5399L120.557 55.3853L120.654 55.0454ZM120.396 55.7562L120.331 56.0035C120.309 56.0241 120.299 56.0447 120.299 56.0653L120.266 56.4362L120.363 56.3125V56.1889C120.363 56.1477 120.369 56.1116 120.379 56.0807C120.39 56.0498 120.396 56.0138 120.396 55.9726V55.7562ZM121.17 53.0056C121.127 52.9643 121.095 52.9437 121.073 52.9437C121.009 52.9437 120.976 52.985 120.976 53.0674C120.976 53.1292 121.009 53.1601 121.073 53.1601C121.116 53.1601 121.149 53.1086 121.17 53.0056ZM121.106 55.4162L120.976 55.7562L121.106 55.6326V55.4162Z" fill="#EB780F"/>
</g>
<g clip-path="url(#clip1_763_3083)">
<path d="M7.55515 74.9672C7.5676 74.9672 7.57383 74.9851 7.57383 75.0209C7.57383 75.0566 7.5676 75.0745 7.55515 75.0745C7.34347 75.0745 7.17537 75.0715 7.05085 75.0656L6.35978 75.0566L5.65936 75.0656C5.54107 75.0715 5.37919 75.0745 5.17374 75.0745C5.15506 75.0745 5.14572 75.0566 5.14572 75.0209C5.14572 74.9851 5.15506 74.9672 5.17374 74.9672C5.43523 74.9672 5.61266 74.9374 5.70605 74.8778C5.79944 74.8182 5.84614 74.6931 5.84614 74.5024L5.8368 74.3504L5.64068 70.6943L3.71687 75.0119C3.70442 75.0358 3.67952 75.0477 3.64216 75.0477C3.60481 75.0477 3.5799 75.0358 3.56745 75.0119L1.20472 70.7122L1.13 73.9392C1.12378 74.261 1.19071 74.5128 1.33079 74.6946C1.47087 74.8763 1.66855 74.9672 1.92381 74.9672C1.94249 74.9672 1.95183 74.9851 1.95183 75.0209C1.95183 75.0566 1.94249 75.0745 1.92381 75.0745C1.75571 75.0745 1.62496 75.0715 1.53158 75.0656L1.01794 75.0566L0.429588 75.0656C0.329974 75.0715 0.196116 75.0745 0.0280166 75.0745C0.00933889 75.0745 0 75.0566 0 75.0209C0 74.9851 0.00933889 74.9672 0.0280166 74.9672C0.283279 74.9672 0.485622 74.8749 0.635044 74.6901C0.784466 74.5054 0.862289 74.2551 0.868515 73.9392L0.952565 70.2384L0.943226 70.2294C0.818708 70.0089 0.68952 69.848 0.555663 69.7467C0.421806 69.6454 0.267714 69.5948 0.0933888 69.5948C0.074711 69.5948 0.0653721 69.5769 0.0653721 69.5411C0.0653721 69.5054 0.074711 69.4875 0.0933888 69.4875L0.532316 69.4964C0.619479 69.5024 0.731545 69.5054 0.868515 69.5054L1.36348 69.4964C1.41951 69.4905 1.49111 69.4875 1.57827 69.4875C1.65921 69.4875 1.72147 69.5143 1.76505 69.5679C1.80863 69.6216 1.88957 69.7497 2.00786 69.9523L4.04373 73.6085L5.81812 69.711C5.85548 69.6275 5.89439 69.5694 5.93486 69.5367C5.97532 69.5039 6.0298 69.4875 6.09829 69.4875C6.15432 69.4875 6.21813 69.4905 6.28973 69.4964C6.36133 69.5024 6.44382 69.5054 6.53721 69.5054L7.08821 69.4964C7.17537 69.4905 7.29989 69.4875 7.46176 69.4875C7.48044 69.4875 7.48978 69.5054 7.48978 69.5411C7.48978 69.5769 7.48044 69.5948 7.46176 69.5948C7.16914 69.5948 6.95746 69.6514 6.82672 69.7646C6.69597 69.8778 6.63683 70.0536 6.64928 70.292L6.87341 74.3504C6.88586 74.5352 6.90921 74.6693 6.94345 74.7527C6.9777 74.8361 7.03996 74.8927 7.13023 74.9225C7.22051 74.9523 7.36215 74.9672 7.55515 74.9672ZM12.2246 73.8856C12.237 73.8677 12.2588 73.8588 12.29 73.8588C12.3211 73.8588 12.3367 73.8677 12.3367 73.8856C12.2931 74.3147 12.2713 74.6663 12.2713 74.9404C12.2713 74.9881 12.2619 75.0224 12.2433 75.0432C12.2246 75.0641 12.1872 75.0745 12.1312 75.0745H8.61978C8.60733 75.0745 8.6011 75.0566 8.6011 75.0209C8.6011 74.9851 8.60733 74.9672 8.61978 74.9672C8.80033 74.9672 8.93108 74.9523 9.01202 74.9225C9.09295 74.8927 9.14899 74.8346 9.18011 74.7482C9.21124 74.6618 9.22681 74.5292 9.22681 74.3504V71.615C9.22681 71.4362 9.21124 71.3051 9.18011 71.2217C9.14899 71.1383 9.0914 71.0802 9.00735 71.0474C8.9233 71.0146 8.79411 70.9982 8.61978 70.9982C8.60733 70.9982 8.6011 70.9803 8.6011 70.9446C8.6011 70.9088 8.60733 70.8909 8.61978 70.8909H11.9631C12.0254 70.8909 12.0565 70.9148 12.0565 70.9625L12.0658 71.5167C12.0721 71.6299 12.0752 71.7729 12.0752 71.9458C12.0752 71.9637 12.058 71.9726 12.0238 71.9726C11.9896 71.9726 11.9693 71.9637 11.9631 71.9458C11.8448 71.6836 11.6643 71.4616 11.4214 71.2798C11.1786 71.098 10.9327 71.0072 10.6837 71.0072H10.6183C10.4813 71.0072 10.3802 71.0235 10.3148 71.0563C10.2494 71.0891 10.2058 71.1472 10.184 71.2306C10.1623 71.3141 10.1514 71.4452 10.1514 71.624V72.8308C10.6245 72.8248 10.9732 72.8069 11.1973 72.7771C11.4214 72.7473 11.5491 72.7324 11.5802 72.7324C11.6238 72.7324 11.6456 72.798 11.6456 72.9291C11.6456 72.9887 11.6394 73.0423 11.6269 73.09C11.6144 73.1377 11.5989 73.1615 11.5802 73.1615C11.5429 73.1615 11.4121 73.1466 11.188 73.1168C10.9638 73.087 10.6183 73.0662 10.1514 73.0542V74.3147C10.1514 74.4934 10.1623 74.6246 10.184 74.708C10.2058 74.7914 10.2494 74.8495 10.3148 74.8823C10.3802 74.9151 10.4813 74.9315 10.6183 74.9315H10.721C11.0136 74.9315 11.3032 74.8316 11.5895 74.632C11.8759 74.4324 12.0876 74.1836 12.2246 73.8856ZM15.8294 75.1103C15.6551 75.1103 15.4621 75.1013 15.2504 75.0834C15.1757 75.0775 15.0823 75.0715 14.9702 75.0656C14.8582 75.0596 14.7305 75.0566 14.5873 75.0566L13.9803 75.0656C13.8682 75.0715 13.7126 75.0745 13.5134 75.0745C13.5009 75.0745 13.4947 75.0566 13.4947 75.0209C13.4947 74.9851 13.5009 74.9672 13.5134 74.9672C13.7001 74.9672 13.8355 74.9523 13.9196 74.9225C14.0036 74.8927 14.0597 74.8346 14.0877 74.7482C14.1157 74.6618 14.1297 74.5292 14.1297 74.3504V71.615C14.1297 71.4362 14.1157 71.3051 14.0877 71.2217C14.0597 71.1383 14.0036 71.0802 13.9196 71.0474C13.8355 71.0146 13.7064 70.9982 13.532 70.9982C13.5134 70.9982 13.504 70.9803 13.504 70.9446C13.504 70.9088 13.5134 70.8909 13.532 70.8909L13.9803 70.8999C14.2293 70.9118 14.4317 70.9178 14.5873 70.9178C14.7803 70.9178 14.9733 70.9088 15.1663 70.8909C15.4154 70.879 15.6021 70.8731 15.7267 70.8731C16.2496 70.8731 16.701 70.9625 17.0808 71.1412C17.4606 71.32 17.7501 71.5673 17.9493 71.8832C18.1485 72.1991 18.2482 72.5566 18.2482 72.9559C18.2482 73.3671 18.1454 73.7366 17.94 74.0644C17.7345 74.3921 17.4481 74.6484 17.0808 74.8331C16.7135 75.0179 16.2963 75.1103 15.8294 75.1103ZM15.7267 74.9136C16.1812 74.9136 16.536 74.7527 16.7913 74.4309C17.0466 74.1091 17.1742 73.6502 17.1742 73.0542C17.1742 72.4762 17.0466 71.9979 16.7913 71.6195C16.536 71.2411 16.1531 71.0519 15.6426 71.0519C15.4309 71.0519 15.28 71.0936 15.1897 71.177C15.0994 71.2604 15.0543 71.4124 15.0543 71.6329V74.2521C15.0543 74.4964 15.0994 74.6678 15.1897 74.7661C15.28 74.8644 15.459 74.9136 15.7267 74.9136ZM20.9751 74.3504C20.9751 74.5292 20.9907 74.6618 21.0218 74.7482C21.0529 74.8346 21.109 74.8927 21.1899 74.9225C21.2708 74.9523 21.4016 74.9672 21.5821 74.9672C21.5946 74.9672 21.6008 74.9851 21.6008 75.0209C21.6008 75.0566 21.5946 75.0745 21.5821 75.0745C21.3891 75.0745 21.2397 75.0715 21.1339 75.0656L20.4988 75.0566L19.8918 75.0656C19.7797 75.0715 19.6241 75.0745 19.4249 75.0745C19.4124 75.0745 19.4062 75.0566 19.4062 75.0209C19.4062 74.9851 19.4124 74.9672 19.4249 74.9672C19.6054 74.9672 19.7377 74.9523 19.8218 74.9225C19.9058 74.8927 19.9634 74.8346 19.9945 74.7482C20.0257 74.6618 20.0412 74.5292 20.0412 74.3504V71.615C20.0412 71.4362 20.0257 71.3051 19.9945 71.2217C19.9634 71.1383 19.9058 71.0802 19.8218 71.0474C19.7377 71.0146 19.6054 70.9982 19.4249 70.9982C19.4124 70.9982 19.4062 70.9803 19.4062 70.9446C19.4062 70.9088 19.4124 70.8909 19.4249 70.8909L19.8918 70.8999C20.1408 70.9118 20.3432 70.9178 20.4988 70.9178C20.6669 70.9178 20.8817 70.9118 21.1432 70.8999L21.5821 70.8909C21.5946 70.8909 21.6008 70.9088 21.6008 70.9446C21.6008 70.9803 21.5946 70.9982 21.5821 70.9982C21.4078 70.9982 21.2786 71.0161 21.1946 71.0519C21.1105 71.0876 21.0529 71.1487 21.0218 71.2351C20.9907 71.3215 20.9751 71.4541 20.9751 71.6329V74.3504ZM27.6804 74.9672C27.7116 74.9672 27.7271 74.9851 27.7271 75.0209C27.7271 75.0566 27.7116 75.0745 27.6804 75.0745C27.5497 75.0745 27.3536 75.0685 27.0921 75.0566C26.8181 75.0447 26.6251 75.0387 26.5131 75.0387C26.4072 75.0387 26.2422 75.0447 26.0181 75.0566C25.8064 75.0685 25.657 75.0745 25.5698 75.0745C25.5449 75.0745 25.5325 75.0566 25.5325 75.0209C25.5325 74.9851 25.5449 74.9672 25.5698 74.9672C25.713 74.9672 25.8142 74.9508 25.8734 74.9181C25.9325 74.8853 25.9621 74.8361 25.9621 74.7706C25.9621 74.6871 25.9092 74.5381 25.8033 74.3236L25.243 73.1704H24.1597L23.8048 73.975C23.6927 74.2253 23.6367 74.4219 23.6367 74.565C23.6367 74.708 23.6896 74.8108 23.7955 74.8734C23.9013 74.9359 24.0663 74.9672 24.2904 74.9672C24.3215 74.9672 24.3371 74.9851 24.3371 75.0209C24.3371 75.0566 24.3215 75.0745 24.2904 75.0745C24.2033 75.0745 24.0787 75.0685 23.9169 75.0566C23.7425 75.0447 23.5807 75.0387 23.4312 75.0387C23.2756 75.0387 23.0919 75.0447 22.8802 75.0566C22.6935 75.0685 22.5409 75.0745 22.4226 75.0745C22.3915 75.0745 22.3759 75.0566 22.3759 75.0209C22.3759 74.9851 22.3915 74.9672 22.4226 74.9672C22.6156 74.9672 22.7713 74.9404 22.8896 74.8868C23.0079 74.8331 23.1184 74.7318 23.2211 74.5828C23.3238 74.4339 23.4437 74.2044 23.5807 73.8945L24.9815 70.7569C24.9939 70.733 25.0126 70.7211 25.0375 70.7211C25.0624 70.7211 25.0811 70.733 25.0936 70.7569L26.5878 73.8498C26.7434 74.1716 26.8726 74.41 26.9753 74.565C27.0781 74.7199 27.1824 74.8257 27.2882 74.8823C27.394 74.9389 27.5248 74.9672 27.6804 74.9672ZM24.6733 71.9994L24.2624 72.938H25.1309L24.6733 71.9994ZM37.589 74.9672C37.6014 74.9672 37.6077 74.9851 37.6077 75.0209C37.6077 75.0566 37.6014 75.0745 37.589 75.0745H35.9267C35.7897 75.0745 35.5344 74.8287 35.1609 74.337C34.7873 73.8454 34.3359 73.1585 33.8067 72.2765C33.7569 72.2825 33.6853 72.2855 33.5919 72.2855C33.3491 72.2855 33.1779 72.2825 33.0783 72.2765V74.3504C33.0783 74.5352 33.0939 74.6693 33.125 74.7527C33.1561 74.8361 33.2168 74.8927 33.3071 74.9225C33.3974 74.9523 33.5421 74.9672 33.7414 74.9672C33.7538 74.9672 33.76 74.9851 33.76 75.0209C33.76 75.0566 33.7538 75.0745 33.7414 75.0745C33.5359 75.0745 33.374 75.0715 33.2557 75.0656L32.546 75.0566L31.8642 75.0656C31.7397 75.0715 31.5716 75.0745 31.3599 75.0745C31.3413 75.0745 31.3319 75.0566 31.3319 75.0209C31.3319 74.9851 31.3413 74.9672 31.3599 74.9672C31.5592 74.9672 31.7039 74.9523 31.7942 74.9225C31.8845 74.8927 31.9467 74.8346 31.981 74.7482C32.0152 74.6618 32.0323 74.5292 32.0323 74.3504V70.2116C32.0323 70.0328 32.0168 69.9017 31.9857 69.8182C31.9545 69.7348 31.8923 69.6767 31.7989 69.6439C31.7055 69.6112 31.5623 69.5948 31.3693 69.5948C31.3568 69.5948 31.3506 69.5769 31.3506 69.5411C31.3506 69.5054 31.3568 69.4875 31.3693 69.4875L31.8642 69.4964C32.1506 69.5083 32.3779 69.5143 32.546 69.5143C32.7265 69.5143 32.9258 69.5054 33.1437 69.4875C33.2122 69.4815 33.3009 69.4756 33.4098 69.4696C33.5188 69.4637 33.648 69.4607 33.7974 69.4607C34.3702 69.4607 34.8138 69.5605 35.1282 69.7601C35.4426 69.9598 35.5998 70.2384 35.5998 70.596C35.5998 70.8701 35.5126 71.1323 35.3383 71.3826C35.164 71.6329 34.9367 71.8355 34.6566 71.9905C35.1546 72.7414 35.5733 73.3284 35.9126 73.7515C36.252 74.1746 36.5539 74.483 36.8185 74.6767C37.0831 74.8704 37.3399 74.9672 37.589 74.9672ZM33.0783 72.0173C33.2277 72.0411 33.4083 72.053 33.62 72.053C33.8441 72.053 34.0215 72.0203 34.1523 71.9547C34.283 71.8892 34.378 71.7759 34.4371 71.615C34.4963 71.4541 34.5258 71.2277 34.5258 70.9356C34.5258 70.447 34.4511 70.1103 34.3017 69.9255C34.1523 69.7408 33.9375 69.6484 33.6573 69.6484C33.4456 69.6484 33.2962 69.6931 33.209 69.7825C33.1219 69.8719 33.0783 70.0209 33.0783 70.2294V72.0173ZM41.9409 73.8856C41.9533 73.8677 41.9751 73.8588 42.0063 73.8588C42.0374 73.8588 42.053 73.8677 42.053 73.8856C42.0094 74.3147 41.9876 74.6663 41.9876 74.9404C41.9876 74.9881 41.9782 75.0224 41.9596 75.0432C41.9409 75.0641 41.9035 75.0745 41.8475 75.0745H38.3361C38.3236 75.0745 38.3174 75.0566 38.3174 75.0209C38.3174 74.9851 38.3236 74.9672 38.3361 74.9672C38.5166 74.9672 38.6474 74.9523 38.7283 74.9225C38.8093 74.8927 38.8653 74.8346 38.8964 74.7482C38.9275 74.6618 38.9431 74.5292 38.9431 74.3504V71.615C38.9431 71.4362 38.9275 71.3051 38.8964 71.2217C38.8653 71.1383 38.8077 71.0802 38.7236 71.0474C38.6396 71.0146 38.5104 70.9982 38.3361 70.9982C38.3236 70.9982 38.3174 70.9803 38.3174 70.9446C38.3174 70.9088 38.3236 70.8909 38.3361 70.8909H41.6794C41.7417 70.8909 41.7728 70.9148 41.7728 70.9625L41.7821 71.5167C41.7884 71.6299 41.7915 71.7729 41.7915 71.9458C41.7915 71.9637 41.7743 71.9726 41.7401 71.9726C41.7059 71.9726 41.6856 71.9637 41.6794 71.9458C41.5611 71.6836 41.3806 71.4616 41.1377 71.2798C40.8949 71.098 40.649 71.0072 40.4 71.0072H40.3346C40.1976 71.0072 40.0965 71.0235 40.0311 71.0563C39.9657 71.0891 39.9221 71.1472 39.9003 71.2306C39.8786 71.3141 39.8677 71.4452 39.8677 71.624V72.8308C40.3408 72.8248 40.6895 72.8069 40.9136 72.7771C41.1377 72.7473 41.2654 72.7324 41.2965 72.7324C41.3401 72.7324 41.3619 72.798 41.3619 72.9291C41.3619 72.9887 41.3557 73.0423 41.3432 73.09C41.3307 73.1377 41.3152 73.1615 41.2965 73.1615C41.2592 73.1615 41.1284 73.1466 40.9043 73.1168C40.6801 73.087 40.3346 73.0662 39.8677 73.0542V74.3147C39.8677 74.4934 39.8786 74.6246 39.9003 74.708C39.9221 74.7914 39.9657 74.8495 40.0311 74.8823C40.0965 74.9151 40.1976 74.9315 40.3346 74.9315H40.4373C40.7299 74.9315 41.0195 74.8316 41.3058 74.632C41.5922 74.4324 41.8039 74.1836 41.9409 73.8856ZM48.1512 74.9672C48.1824 74.9672 48.1979 74.9851 48.1979 75.0209C48.1979 75.0566 48.1824 75.0745 48.1512 75.0745C48.0205 75.0745 47.8244 75.0685 47.5629 75.0566C47.289 75.0447 47.096 75.0387 46.9839 75.0387C46.878 75.0387 46.7131 75.0447 46.4889 75.0566C46.2772 75.0685 46.1278 75.0745 46.0407 75.0745C46.0158 75.0745 46.0033 75.0566 46.0033 75.0209C46.0033 74.9851 46.0158 74.9672 46.0407 74.9672C46.1839 74.9672 46.285 74.9508 46.3442 74.9181C46.4033 74.8853 46.4329 74.8361 46.4329 74.7706C46.4329 74.6871 46.38 74.5381 46.2741 74.3236L45.7138 73.1704H44.6305L44.2756 73.975C44.1635 74.2253 44.1075 74.4219 44.1075 74.565C44.1075 74.708 44.1604 74.8108 44.2663 74.8734C44.3721 74.9359 44.5371 74.9672 44.7612 74.9672C44.7924 74.9672 44.8079 74.9851 44.8079 75.0209C44.8079 75.0566 44.7924 75.0745 44.7612 75.0745C44.6741 75.0745 44.5495 75.0685 44.3877 75.0566C44.2134 75.0447 44.0515 75.0387 43.9021 75.0387C43.7464 75.0387 43.5627 75.0447 43.3511 75.0566C43.1643 75.0685 43.0117 75.0745 42.8935 75.0745C42.8623 75.0745 42.8468 75.0566 42.8468 75.0209C42.8468 74.9851 42.8623 74.9672 42.8935 74.9672C43.0865 74.9672 43.2421 74.9404 43.3604 74.8868C43.4787 74.8331 43.5892 74.7318 43.6919 74.5828C43.7947 74.4339 43.9145 74.2044 44.0515 73.8945L45.4523 70.7569C45.4648 70.733 45.4834 70.7211 45.5083 70.7211C45.5332 70.7211 45.5519 70.733 45.5644 70.7569L47.0586 73.8498C47.2142 74.1716 47.3434 74.41 47.4462 74.565C47.5489 74.7199 47.6532 74.8257 47.759 74.8823C47.8649 74.9389 47.9956 74.9672 48.1512 74.9672ZM45.1441 71.9994L44.7332 72.938H45.6017L45.1441 71.9994ZM50.4673 71.624V74.3147C50.4673 74.4756 50.4828 74.5948 50.514 74.6722C50.5451 74.7497 50.6058 74.8048 50.6961 74.8376C50.7864 74.8704 50.9218 74.8868 51.1023 74.8868H51.2051C51.5599 74.8868 51.8837 74.7765 52.1763 74.556C52.4689 74.3355 52.6837 74.0375 52.8207 73.6621C52.8269 73.6502 52.8471 73.6457 52.8814 73.6487C52.9156 73.6517 52.9327 73.6591 52.9327 73.671C52.8892 73.9869 52.8674 74.41 52.8674 74.9404C52.8674 74.9881 52.8565 75.0224 52.8347 75.0432C52.8129 75.0641 52.774 75.0745 52.718 75.0745H48.9824C48.97 75.0745 48.9637 75.0566 48.9637 75.0209C48.9637 74.9851 48.97 74.9672 48.9824 74.9672C49.1443 74.9672 49.2626 74.9523 49.3373 74.9225C49.412 74.8927 49.4634 74.8346 49.4914 74.7482C49.5194 74.6618 49.5334 74.5292 49.5334 74.3504V71.615C49.5334 71.4362 49.5194 71.3051 49.4914 71.2217C49.4634 71.1383 49.412 71.0802 49.3373 71.0474C49.2626 71.0146 49.1443 70.9982 48.9824 70.9982C48.97 70.9982 48.9637 70.9803 48.9637 70.9446C48.9637 70.9088 48.97 70.8909 48.9824 70.8909L49.44 70.8999C49.7015 70.9118 49.9038 70.9178 50.047 70.9178C50.2089 70.9178 50.4206 70.9118 50.6821 70.8999L51.1117 70.8909C51.1303 70.8909 51.1397 70.9088 51.1397 70.9446C51.1397 70.9803 51.1303 70.9982 51.1117 70.9982C50.9249 70.9982 50.7864 71.0146 50.6961 71.0474C50.6058 71.0802 50.5451 71.1398 50.514 71.2262C50.4828 71.3126 50.4673 71.4452 50.4673 71.624ZM54.8846 71.0697C54.648 71.0697 54.4223 71.1651 54.2075 71.3558C53.9927 71.5465 53.8231 71.8057 53.6985 72.1335C53.6923 72.1514 53.6736 72.1603 53.6425 72.1603C53.6114 72.1603 53.5958 72.1514 53.5958 72.1335C53.6207 71.9428 53.6487 71.694 53.6799 71.3871C53.711 71.0802 53.7266 70.8492 53.7266 70.6943C53.7266 70.6645 53.7437 70.6496 53.7779 70.6496C53.8122 70.6496 53.8293 70.6645 53.8293 70.6943C53.8293 70.7718 53.876 70.8209 53.9694 70.8418C54.0628 70.8626 54.181 70.8731 54.3242 70.8731C54.8597 70.885 55.3297 70.8909 55.7344 70.8909L56.5469 70.882C56.6527 70.876 56.7959 70.8731 56.9765 70.8731C57.2193 70.8731 57.4014 70.8597 57.5228 70.8328C57.6442 70.806 57.7205 70.7479 57.7516 70.6585C57.7578 70.6406 57.7781 70.6317 57.8123 70.6317C57.8466 70.6317 57.8637 70.6406 57.8637 70.6585L57.8357 71.1055C57.7983 71.6299 57.7796 71.9726 57.7796 72.1335C57.7796 72.1514 57.7609 72.1603 57.7236 72.1603C57.6862 72.1603 57.6676 72.1514 57.6676 72.1335C57.6364 71.9488 57.5648 71.7744 57.4528 71.6106C57.3407 71.4467 57.2084 71.3156 57.0559 71.2172C56.9033 71.1189 56.7492 71.0697 56.5936 71.0697C56.4442 71.0697 56.3446 71.107 56.2947 71.1815C56.2449 71.256 56.22 71.4005 56.22 71.615V74.3504C56.22 74.5292 56.2372 74.6618 56.2714 74.7482C56.3056 74.8346 56.3695 74.8927 56.4628 74.9225C56.5562 74.9523 56.7057 74.9672 56.9111 74.9672C56.9298 74.9672 56.9391 74.9851 56.9391 75.0209C56.9391 75.0566 56.9298 75.0745 56.9111 75.0745C56.7057 75.0745 56.5438 75.0715 56.4255 75.0656L55.7251 75.0566L55.0433 75.0656C54.925 75.0715 54.7569 75.0745 54.539 75.0745C54.5266 75.0745 54.5204 75.0566 54.5204 75.0209C54.5204 74.9851 54.5266 74.9672 54.539 74.9672C54.7507 74.9672 54.9048 74.9523 55.0013 74.9225C55.0978 74.8927 55.1632 74.8346 55.1974 74.7482C55.2317 74.6618 55.2488 74.5292 55.2488 74.3504V71.5971C55.2488 71.3766 55.227 71.2336 55.1834 71.1681C55.1398 71.1025 55.0402 71.0697 54.8846 71.0697ZM63.2522 70.8909C63.2709 70.8909 63.2802 70.9088 63.2802 70.9446C63.2802 70.9803 63.2709 70.9982 63.2522 70.9982C62.8724 70.9982 62.5269 71.2664 62.2156 71.8027L61.5058 73.0274V74.3504C61.5058 74.5352 61.5214 74.6693 61.5525 74.7527C61.5837 74.8361 61.6459 74.8927 61.7393 74.9225C61.8327 74.9523 61.9852 74.9672 62.1969 74.9672C62.2094 74.9672 62.2156 74.9851 62.2156 75.0209C62.2156 75.0566 62.2094 75.0745 62.1969 75.0745C61.9915 75.0745 61.8296 75.0715 61.7113 75.0656L61.0109 75.0566L60.3478 75.0656C60.2233 75.0715 60.0521 75.0745 59.8342 75.0745C59.8155 75.0745 59.8062 75.0566 59.8062 75.0209C59.8062 74.9851 59.8155 74.9672 59.8342 74.9672C60.0396 74.9672 60.1906 74.9523 60.2871 74.9225C60.3836 74.8927 60.449 74.8346 60.4832 74.7482C60.5175 74.6618 60.5346 74.5292 60.5346 74.3504V73.1615L59.5073 71.6329C59.3579 71.4064 59.2163 71.244 59.0824 71.1457C58.9485 71.0474 58.81 70.9982 58.6668 70.9982C58.6481 70.9982 58.6388 70.9803 58.6388 70.9446C58.6388 70.9088 58.6481 70.8909 58.6668 70.8909L59.0124 70.8999L59.3859 70.9178C59.5727 70.9178 59.8653 70.9118 60.2638 70.8999L60.8521 70.8909C60.8646 70.8909 60.8708 70.9088 60.8708 70.9446C60.8708 70.9803 60.8646 70.9982 60.8521 70.9982C60.5471 70.9982 60.3945 71.0727 60.3945 71.2217C60.3945 71.2932 60.435 71.3856 60.5159 71.4988L61.3844 72.795L61.9541 71.7938C62.0475 71.6329 62.0942 71.4899 62.0942 71.3647C62.0942 71.2515 62.0553 71.1621 61.9775 71.0965C61.8996 71.031 61.7798 70.9982 61.6179 70.9982C61.5992 70.9982 61.5899 70.9803 61.5899 70.9446C61.5899 70.9088 61.5992 70.8909 61.6179 70.8909L62.0662 70.8999C62.3152 70.9118 62.5425 70.9178 62.7479 70.9178C62.8226 70.9178 62.916 70.9118 63.0281 70.8999L63.2522 70.8909ZM70.4992 69.3892C70.7731 69.3892 71.0595 69.4115 71.3584 69.4562C71.6572 69.5009 71.8907 69.559 72.0588 69.6305C72.1148 69.6484 72.1506 69.6707 72.1662 69.6976C72.1817 69.7244 72.1957 69.7706 72.2082 69.8361L72.3203 71.0787C72.3203 71.0965 72.3047 71.1085 72.2736 71.1144C72.2424 71.1204 72.2238 71.1114 72.2175 71.0876C72.0059 70.6168 71.7226 70.2533 71.3677 69.997C71.0128 69.7408 70.6019 69.6126 70.135 69.6126C69.5186 69.6126 69.0423 69.8302 68.7061 70.2652C68.3699 70.7002 68.2018 71.2843 68.2018 72.0173C68.2018 72.5656 68.2936 73.0662 68.4773 73.5191C68.661 73.972 68.9193 74.3311 69.2524 74.5962C69.5855 74.8614 69.9637 74.994 70.3871 74.994C70.7856 74.994 71.142 74.8674 71.4564 74.6141C71.7708 74.3608 72.0525 73.975 72.3016 73.4565C72.3078 73.4327 72.328 73.4237 72.3623 73.4297C72.3965 73.4356 72.4136 73.4476 72.4136 73.4654L72.2736 74.6812C72.2611 74.7527 72.2471 74.7989 72.2315 74.8197C72.216 74.8406 72.1802 74.8629 72.1241 74.8868C71.57 75.0834 71.0004 75.1818 70.4151 75.1818C69.6556 75.1818 69.0205 75.0372 68.51 74.7482C67.9995 74.4592 67.6244 74.0927 67.3847 73.6487C67.145 73.2047 67.0251 72.7414 67.0251 72.2586C67.0251 71.6925 67.1854 71.1919 67.5061 70.7569C67.8267 70.3218 68.2532 69.9851 68.7855 69.7467C69.3178 69.5083 69.889 69.3892 70.4992 69.3892ZM75.9437 75.1818C75.5017 75.1818 75.1064 75.0819 74.7577 74.8823C74.4091 74.6827 74.1382 74.4145 73.9452 74.0778C73.7522 73.7411 73.6557 73.376 73.6557 72.9827C73.6557 72.5298 73.7787 72.1365 74.0246 71.8027C74.2705 71.469 74.5849 71.2157 74.9678 71.0429C75.3507 70.8701 75.7445 70.7837 76.1492 70.7837C76.5912 70.7837 76.9819 70.8865 77.3212 71.0921C77.6605 71.2977 77.9236 71.5659 78.1104 71.8966C78.2971 72.2274 78.3905 72.5745 78.3905 72.938C78.3905 73.3373 78.2816 73.7083 78.0637 74.051C77.8458 74.3936 77.55 74.6678 77.1765 74.8734C76.8029 75.079 76.392 75.1818 75.9437 75.1818ZM76.1585 74.9762C76.5072 74.9762 76.7889 74.8123 77.0037 74.4845C77.2185 74.1567 77.3259 73.7038 77.3259 73.1257C77.3259 72.7324 77.2636 72.3749 77.1391 72.053C77.0146 71.7312 76.8387 71.4765 76.6115 71.2887C76.3842 71.101 76.1212 71.0072 75.8223 71.0072C75.4612 71.0072 75.1873 71.1502 75.0005 71.4362C74.8137 71.7223 74.7204 72.1454 74.7204 72.7056C74.7204 73.1287 74.7842 73.5146 74.9118 73.8632C75.0394 74.2119 75.2122 74.4845 75.4301 74.6812C75.648 74.8778 75.8908 74.9762 76.1585 74.9762ZM85.348 74.9672C85.3604 74.9672 85.3667 74.9851 85.3667 75.0209C85.3667 75.0566 85.3604 75.0745 85.348 75.0745C85.1799 75.0745 85.046 75.0715 84.9464 75.0656L84.3861 75.0566L83.751 75.0656C83.6452 75.0715 83.4989 75.0745 83.3121 75.0745C83.2997 75.0745 83.2934 75.0566 83.2934 75.0209C83.2934 74.9851 83.2997 74.9672 83.3121 74.9672C83.5425 74.9672 83.6981 74.9374 83.7791 74.8778C83.86 74.8182 83.9005 74.6961 83.9005 74.5113L83.8911 74.3504L83.7324 71.5971L82.2755 75.0119C82.263 75.0358 82.2413 75.0477 82.2101 75.0477C82.1728 75.0477 82.1479 75.0358 82.1354 75.0119L80.3797 71.7491L80.3423 73.9392C80.3361 74.2908 80.3906 74.5501 80.5058 74.7169C80.621 74.8838 80.8 74.9672 81.0428 74.9672C81.0614 74.9672 81.0708 74.9851 81.0708 75.0209C81.0708 75.0566 81.0614 75.0745 81.0428 75.0745C80.8933 75.0745 80.7782 75.0715 80.6972 75.0656L80.249 75.0566L79.7914 75.0656C79.7104 75.0715 79.589 75.0745 79.4271 75.0745C79.4147 75.0745 79.4085 75.0566 79.4085 75.0209C79.4085 74.9851 79.4147 74.9672 79.4271 74.9672C79.6762 74.9672 79.8583 74.8838 79.9735 74.7169C80.0886 74.5501 80.1493 74.2908 80.1556 73.9392L80.1929 71.4452C79.9875 71.1472 79.7384 70.9982 79.4458 70.9982C79.4334 70.9982 79.4271 70.9803 79.4271 70.9446C79.4271 70.9088 79.4334 70.8909 79.4458 70.8909L80.2209 70.8999L80.8 70.8909C80.8871 70.8909 80.9587 70.9193 81.0147 70.9759C81.0708 71.0325 81.1486 71.1591 81.2482 71.3558L82.593 73.8409L83.751 71.1144C83.7759 71.0489 83.8164 70.9952 83.8725 70.9535C83.9285 70.9118 83.9845 70.8909 84.0406 70.8909L84.6196 70.8999L85.3293 70.8909C85.3418 70.8909 85.348 70.9088 85.348 70.9446C85.348 70.9803 85.3418 70.9982 85.3293 70.9982C85.0927 70.9982 84.9246 71.0384 84.825 71.1189C84.7254 71.1993 84.6849 71.3588 84.7036 71.5971L84.8717 74.3504C84.8842 74.5352 84.9013 74.6693 84.9231 74.7527C84.9449 74.8361 84.9869 74.8927 85.0491 74.9225C85.1114 74.9523 85.211 74.9672 85.348 74.9672ZM92.3055 74.9672C92.3179 74.9672 92.3241 74.9851 92.3241 75.0209C92.3241 75.0566 92.3179 75.0745 92.3055 75.0745C92.1374 75.0745 92.0035 75.0715 91.9039 75.0656L91.3436 75.0566L90.7085 75.0656C90.6027 75.0715 90.4564 75.0745 90.2696 75.0745C90.2571 75.0745 90.2509 75.0566 90.2509 75.0209C90.2509 74.9851 90.2571 74.9672 90.2696 74.9672C90.4999 74.9672 90.6556 74.9374 90.7365 74.8778C90.8175 74.8182 90.8579 74.6961 90.8579 74.5113L90.8486 74.3504L90.6898 71.5971L89.233 75.0119C89.2205 75.0358 89.1987 75.0477 89.1676 75.0477C89.1302 75.0477 89.1053 75.0358 89.0929 75.0119L87.3372 71.7491L87.2998 73.9392C87.2936 74.2908 87.3481 74.5501 87.4632 74.7169C87.5784 74.8838 87.7574 74.9672 88.0002 74.9672C88.0189 74.9672 88.0282 74.9851 88.0282 75.0209C88.0282 75.0566 88.0189 75.0745 88.0002 75.0745C87.8508 75.0745 87.7356 75.0715 87.6547 75.0656L87.2064 75.0566L86.7488 75.0656C86.6679 75.0715 86.5465 75.0745 86.3846 75.0745C86.3722 75.0745 86.3659 75.0566 86.3659 75.0209C86.3659 74.9851 86.3722 74.9672 86.3846 74.9672C86.6336 74.9672 86.8158 74.8838 86.9309 74.7169C87.0461 74.5501 87.1068 74.2908 87.113 73.9392L87.1504 71.4452C86.9449 71.1472 86.6959 70.9982 86.4033 70.9982C86.3908 70.9982 86.3846 70.9803 86.3846 70.9446C86.3846 70.9088 86.3908 70.8909 86.4033 70.8909L87.1784 70.8999L87.7574 70.8909C87.8446 70.8909 87.9162 70.9193 87.9722 70.9759C88.0283 71.0325 88.1061 71.1591 88.2057 71.3558L89.5505 73.8409L90.7085 71.1144C90.7334 71.0489 90.7739 70.9952 90.8299 70.9535C90.8859 70.9118 90.942 70.8909 90.998 70.8909L91.577 70.8999L92.2868 70.8909C92.2992 70.8909 92.3055 70.9088 92.3055 70.9446C92.3055 70.9803 92.2992 70.9982 92.2868 70.9982C92.0502 70.9982 91.8821 71.0384 91.7825 71.1189C91.6829 71.1993 91.6424 71.3588 91.6611 71.5971L91.8292 74.3504C91.8416 74.5352 91.8587 74.6693 91.8805 74.7527C91.9023 74.8361 91.9444 74.8927 92.0066 74.9225C92.0689 74.9523 92.1685 74.9672 92.3055 74.9672ZM97.4605 71.9279C97.4605 71.612 97.3967 71.3781 97.2691 71.2262C97.1414 71.0742 96.9407 70.9982 96.6667 70.9982C96.648 70.9982 96.6387 70.9803 96.6387 70.9446C96.6387 70.9088 96.648 70.8909 96.6667 70.8909L97.0589 70.8999C97.2706 70.9118 97.4418 70.9178 97.5726 70.9178C97.6722 70.9178 97.8216 70.9118 98.0208 70.8999L98.4037 70.8909C98.4162 70.8909 98.4224 70.9088 98.4224 70.9446C98.4224 70.9803 98.4162 70.9982 98.4037 70.9982C98.1547 70.9982 97.9742 71.0727 97.8621 71.2217C97.75 71.3707 97.694 71.6061 97.694 71.9279V73.4297C97.694 73.9839 97.5352 74.416 97.2177 74.7259C96.9002 75.0358 96.4706 75.1907 95.9289 75.1907C95.5803 75.1907 95.2581 75.1237 94.9624 74.9896C94.6666 74.8555 94.43 74.6633 94.2526 74.413C94.0752 74.1627 93.9865 73.8647 93.9865 73.5191V71.615C93.9865 71.4362 93.9724 71.3051 93.9444 71.2217C93.9164 71.1383 93.8604 71.0802 93.7763 71.0474C93.6923 71.0146 93.5631 70.9982 93.3888 70.9982C93.3701 70.9982 93.3607 70.9803 93.3607 70.9446C93.3607 70.9088 93.3701 70.8909 93.3888 70.8909L93.837 70.8999C94.0861 70.9118 94.2853 70.9178 94.4347 70.9178C94.6028 70.9178 94.8114 70.9118 95.0604 70.8999L95.5087 70.8909C95.5211 70.8909 95.5274 70.9088 95.5274 70.9446C95.5274 70.9803 95.5211 70.9982 95.5087 70.9982C95.3344 70.9982 95.2052 71.0161 95.1211 71.0519C95.0371 71.0876 94.9795 71.1487 94.9484 71.2351C94.9172 71.3215 94.9017 71.4541 94.9017 71.6329V73.2867C94.9017 73.817 95.0215 74.2059 95.2612 74.4532C95.5009 74.7005 95.8138 74.8242 96.1998 74.8242C96.5858 74.8242 96.8924 74.705 97.1196 74.4666C97.3469 74.2283 97.4605 73.8886 97.4605 73.4476V71.9279ZM104.185 70.8909C104.203 70.8909 104.213 70.9088 104.213 70.9446C104.213 70.9803 104.203 70.9982 104.185 70.9982C103.935 70.9982 103.752 71.0817 103.634 71.2485C103.515 71.4154 103.456 71.6776 103.456 72.0352V75.1728C103.456 75.1847 103.441 75.1937 103.409 75.1996C103.378 75.2056 103.356 75.2026 103.344 75.1907L100.066 71.6508V73.9392C100.066 74.2908 100.124 74.5501 100.239 74.7169C100.354 74.8838 100.533 74.9672 100.776 74.9672C100.794 74.9672 100.804 74.9851 100.804 75.0209C100.804 75.0566 100.794 75.0745 100.776 75.0745C100.626 75.0745 100.511 75.0715 100.43 75.0656L99.982 75.0566L99.5337 75.0656C99.4466 75.0715 99.3221 75.0745 99.1602 75.0745C99.1477 75.0745 99.1415 75.0566 99.1415 75.0209C99.1415 74.9851 99.1477 74.9672 99.1602 74.9672C99.4092 74.9672 99.5929 74.8838 99.7112 74.7169C99.8295 74.5501 99.8886 74.2908 99.8886 73.9392V71.472C99.7205 71.3051 99.5727 71.1845 99.445 71.11C99.3174 71.0355 99.1944 70.9982 99.0761 70.9982C99.0637 70.9982 99.0575 70.9803 99.0575 70.9446C99.0575 70.9088 99.0637 70.8909 99.0761 70.8909L99.5991 70.8999C99.6489 70.8999 99.7174 70.8984 99.8046 70.8954C99.8917 70.8924 100.113 70.8909 100.468 70.8909C100.517 70.8909 100.559 70.9058 100.594 70.9356C100.628 70.9654 100.682 71.0221 100.757 71.1055C100.807 71.177 100.875 71.2604 100.963 71.3558L103.269 73.823V72.0352C103.269 71.6776 103.213 71.4154 103.101 71.2485C102.989 71.0817 102.809 70.9982 102.56 70.9982C102.547 70.9982 102.541 70.9803 102.541 70.9446C102.541 70.9088 102.547 70.8909 102.56 70.8909L102.914 70.8999C103.101 70.9118 103.248 70.9178 103.353 70.9178C103.459 70.9178 103.612 70.9118 103.811 70.8999L104.185 70.8909ZM106.725 74.3504C106.725 74.5292 106.74 74.6618 106.771 74.7482C106.802 74.8346 106.859 74.8927 106.939 74.9225C107.02 74.9523 107.151 74.9672 107.332 74.9672C107.344 74.9672 107.35 74.9851 107.35 75.0209C107.35 75.0566 107.344 75.0745 107.332 75.0745C107.139 75.0745 106.989 75.0715 106.883 75.0656L106.248 75.0566L105.641 75.0656C105.529 75.0715 105.374 75.0745 105.174 75.0745C105.162 75.0745 105.156 75.0566 105.156 75.0209C105.156 74.9851 105.162 74.9672 105.174 74.9672C105.355 74.9672 105.487 74.9523 105.571 74.9225C105.655 74.8927 105.713 74.8346 105.744 74.7482C105.775 74.6618 105.791 74.5292 105.791 74.3504V71.615C105.791 71.4362 105.775 71.3051 105.744 71.2217C105.713 71.1383 105.655 71.0802 105.571 71.0474C105.487 71.0146 105.355 70.9982 105.174 70.9982C105.162 70.9982 105.156 70.9803 105.156 70.9446C105.156 70.9088 105.162 70.8909 105.174 70.8909L105.641 70.8999C105.89 70.9118 106.093 70.9178 106.248 70.9178C106.416 70.9178 106.631 70.9118 106.893 70.8999L107.332 70.8909C107.344 70.8909 107.35 70.9088 107.35 70.9446C107.35 70.9803 107.344 70.9982 107.332 70.9982C107.157 70.9982 107.028 71.0161 106.944 71.0519C106.86 71.0876 106.802 71.1487 106.771 71.2351C106.74 71.3215 106.725 71.4541 106.725 71.6329V74.3504ZM111.105 70.7837C111.335 70.7837 111.586 70.8075 111.856 70.8552C112.127 70.9029 112.35 70.9654 112.524 71.0429C112.568 71.0608 112.596 71.0802 112.608 71.101C112.621 71.1219 112.627 71.1532 112.627 71.1949L112.674 72.1156C112.674 72.1335 112.658 72.1454 112.627 72.1514C112.596 72.1573 112.574 72.1484 112.561 72.1246C112.325 71.7372 112.084 71.4496 111.838 71.2619C111.592 71.0742 111.31 70.9803 110.993 70.9803C110.55 70.9803 110.211 71.1487 109.975 71.4854C109.738 71.8221 109.62 72.2706 109.62 72.8308C109.62 73.2002 109.674 73.5489 109.783 73.8766C109.892 74.2044 110.065 74.4726 110.301 74.6812C110.538 74.8898 110.837 74.994 111.198 74.994C111.516 74.994 111.785 74.9017 112.006 74.7169C112.227 74.5322 112.443 74.2342 112.655 73.823C112.661 73.7992 112.68 73.7902 112.711 73.7962C112.742 73.8021 112.758 73.8141 112.758 73.8319L112.683 74.7795C112.677 74.8272 112.667 74.86 112.655 74.8778C112.642 74.8957 112.608 74.9166 112.552 74.9404C112.073 75.1013 111.575 75.1818 111.058 75.1818C110.46 75.1818 109.971 75.0685 109.592 74.8421C109.212 74.6156 108.936 74.3325 108.765 73.9929C108.594 73.6532 108.508 73.3105 108.508 72.9648C108.508 72.5596 108.622 72.1901 108.849 71.8564C109.077 71.5227 109.388 71.2604 109.783 71.0697C110.179 70.879 110.619 70.7837 111.105 70.7837ZM118.94 74.9672C118.971 74.9672 118.987 74.9851 118.987 75.0209C118.987 75.0566 118.971 75.0745 118.94 75.0745C118.809 75.0745 118.613 75.0685 118.352 75.0566C118.078 75.0447 117.885 75.0387 117.773 75.0387C117.667 75.0387 117.502 75.0447 117.278 75.0566C117.066 75.0685 116.917 75.0745 116.829 75.0745C116.804 75.0745 116.792 75.0566 116.792 75.0209C116.792 74.9851 116.804 74.9672 116.829 74.9672C116.973 74.9672 117.074 74.9508 117.133 74.9181C117.192 74.8853 117.222 74.8361 117.222 74.7706C117.222 74.6871 117.169 74.5381 117.063 74.3236L116.502 73.1704H115.419L115.064 73.975C114.952 74.2253 114.896 74.4219 114.896 74.565C114.896 74.708 114.949 74.8108 115.055 74.8734C115.161 74.9359 115.326 74.9672 115.55 74.9672C115.581 74.9672 115.597 74.9851 115.597 75.0209C115.597 75.0566 115.581 75.0745 115.55 75.0745C115.463 75.0745 115.338 75.0685 115.176 75.0566C115.002 75.0447 114.84 75.0387 114.691 75.0387C114.535 75.0387 114.351 75.0447 114.14 75.0566C113.953 75.0685 113.8 75.0745 113.682 75.0745C113.651 75.0745 113.635 75.0566 113.635 75.0209C113.635 74.9851 113.651 74.9672 113.682 74.9672C113.875 74.9672 114.031 74.9404 114.149 74.8868C114.267 74.8331 114.378 74.7318 114.481 74.5828C114.583 74.4339 114.703 74.2044 114.84 73.8945L116.241 70.7569C116.253 70.733 116.272 70.7211 116.297 70.7211C116.322 70.7211 116.341 70.733 116.353 70.7569L117.847 73.8498C118.003 74.1716 118.132 74.41 118.235 74.565C118.338 74.7199 118.442 74.8257 118.548 74.8823C118.654 74.9389 118.784 74.9672 118.94 74.9672ZM115.933 71.9994L115.522 72.938H116.39L115.933 71.9994ZM120.686 71.0697C120.45 71.0697 120.224 71.1651 120.009 71.3558C119.794 71.5465 119.625 71.8057 119.5 72.1335C119.494 72.1514 119.475 72.1603 119.444 72.1603C119.413 72.1603 119.398 72.1514 119.398 72.1335C119.422 71.9428 119.45 71.694 119.482 71.3871C119.513 71.0802 119.528 70.8492 119.528 70.6943C119.528 70.6645 119.545 70.6496 119.58 70.6496C119.614 70.6496 119.631 70.6645 119.631 70.6943C119.631 70.7718 119.678 70.8209 119.771 70.8418C119.864 70.8626 119.983 70.8731 120.126 70.8731C120.661 70.885 121.131 70.8909 121.536 70.8909L122.349 70.882C122.454 70.876 122.598 70.8731 122.778 70.8731C123.021 70.8731 123.203 70.8597 123.325 70.8328C123.446 70.806 123.522 70.7479 123.553 70.6585C123.56 70.6406 123.58 70.6317 123.614 70.6317C123.648 70.6317 123.665 70.6406 123.665 70.6585L123.637 71.1055C123.6 71.6299 123.581 71.9726 123.581 72.1335C123.581 72.1514 123.563 72.1603 123.525 72.1603C123.488 72.1603 123.469 72.1514 123.469 72.1335C123.438 71.9488 123.367 71.7744 123.254 71.6106C123.142 71.4467 123.01 71.3156 122.858 71.2172C122.705 71.1189 122.551 71.0697 122.395 71.0697C122.246 71.0697 122.146 71.107 122.096 71.1815C122.047 71.256 122.022 71.4005 122.022 71.615V74.3504C122.022 74.5292 122.039 74.6618 122.073 74.7482C122.107 74.8346 122.171 74.8927 122.265 74.9225C122.358 74.9523 122.507 74.9672 122.713 74.9672C122.732 74.9672 122.741 74.9851 122.741 75.0209C122.741 75.0566 122.732 75.0745 122.713 75.0745C122.507 75.0745 122.345 75.0715 122.227 75.0656L121.527 75.0566L120.845 75.0656C120.727 75.0715 120.559 75.0745 120.341 75.0745C120.328 75.0745 120.322 75.0566 120.322 75.0209C120.322 74.9851 120.328 74.9672 120.341 74.9672C120.552 74.9672 120.707 74.9523 120.803 74.9225C120.9 74.8927 120.965 74.8346 120.999 74.7482C121.033 74.6618 121.051 74.5292 121.051 74.3504V71.5971C121.051 71.3766 121.029 71.2336 120.985 71.1681C120.942 71.1025 120.842 71.0697 120.686 71.0697ZM126.299 74.3504C126.299 74.5292 126.315 74.6618 126.346 74.7482C126.377 74.8346 126.433 74.8927 126.514 74.9225C126.595 74.9523 126.725 74.9672 126.906 74.9672C126.918 74.9672 126.925 74.9851 126.925 75.0209C126.925 75.0566 126.918 75.0745 126.906 75.0745C126.713 75.0745 126.564 75.0715 126.458 75.0656L125.823 75.0566L125.216 75.0656C125.104 75.0715 124.948 75.0745 124.749 75.0745C124.736 75.0745 124.73 75.0566 124.73 75.0209C124.73 74.9851 124.736 74.9672 124.749 74.9672C124.929 74.9672 125.062 74.9523 125.146 74.9225C125.23 74.8927 125.287 74.8346 125.318 74.7482C125.349 74.6618 125.365 74.5292 125.365 74.3504V71.615C125.365 71.4362 125.349 71.3051 125.318 71.2217C125.287 71.1383 125.23 71.0802 125.146 71.0474C125.062 71.0146 124.929 70.9982 124.749 70.9982C124.736 70.9982 124.73 70.9803 124.73 70.9446C124.73 70.9088 124.736 70.8909 124.749 70.8909L125.216 70.8999C125.465 70.9118 125.667 70.9178 125.823 70.9178C125.991 70.9178 126.206 70.9118 126.467 70.8999L126.906 70.8909C126.918 70.8909 126.925 70.9088 126.925 70.9446C126.925 70.9803 126.918 70.9982 126.906 70.9982C126.732 70.9982 126.602 71.0161 126.518 71.0519C126.434 71.0876 126.377 71.1487 126.346 71.2351C126.315 71.3215 126.299 71.4541 126.299 71.6329V74.3504ZM130.371 75.1818C129.929 75.1818 129.533 75.0819 129.185 74.8823C128.836 74.6827 128.565 74.4145 128.372 74.0778C128.179 73.7411 128.083 73.376 128.083 72.9827C128.083 72.5298 128.206 72.1365 128.452 71.8027C128.697 71.469 129.012 71.2157 129.395 71.0429C129.778 70.8701 130.171 70.7837 130.576 70.7837C131.018 70.7837 131.409 70.8865 131.748 71.0921C132.088 71.2977 132.351 71.5659 132.537 71.8966C132.724 72.2274 132.817 72.5745 132.817 72.938C132.817 73.3373 132.709 73.7083 132.491 74.051C132.273 74.3936 131.977 74.6678 131.603 74.8734C131.23 75.079 130.819 75.1818 130.371 75.1818ZM130.586 74.9762C130.934 74.9762 131.216 74.8123 131.431 74.4845C131.645 74.1567 131.753 73.7038 131.753 73.1257C131.753 72.7324 131.691 72.3749 131.566 72.053C131.442 71.7312 131.266 71.4765 131.038 71.2887C130.811 71.101 130.548 71.0072 130.249 71.0072C129.888 71.0072 129.614 71.1502 129.427 71.4362C129.241 71.7223 129.147 72.1454 129.147 72.7056C129.147 73.1287 129.211 73.5146 129.339 73.8632C129.466 74.2119 129.639 74.4845 129.857 74.6812C130.075 74.8778 130.318 74.9762 130.586 74.9762ZM138.832 70.8909C138.85 70.8909 138.86 70.9088 138.86 70.9446C138.86 70.9803 138.85 70.9982 138.832 70.9982C138.583 70.9982 138.399 71.0817 138.281 71.2485C138.162 71.4154 138.103 71.6776 138.103 72.0352V75.1728C138.103 75.1847 138.088 75.1937 138.057 75.1996C138.025 75.2056 138.004 75.2026 137.991 75.1907L134.713 71.6508V73.9392C134.713 74.2908 134.771 74.5501 134.886 74.7169C135.001 74.8838 135.18 74.9672 135.423 74.9672C135.442 74.9672 135.451 74.9851 135.451 75.0209C135.451 75.0566 135.442 75.0745 135.423 75.0745C135.274 75.0745 135.158 75.0715 135.077 75.0656L134.629 75.0566L134.181 75.0656C134.094 75.0715 133.969 75.0745 133.807 75.0745C133.795 75.0745 133.789 75.0566 133.789 75.0209C133.789 74.9851 133.795 74.9672 133.807 74.9672C134.056 74.9672 134.24 74.8838 134.358 74.7169C134.477 74.5501 134.536 74.2908 134.536 73.9392V71.472C134.368 71.3051 134.22 71.1845 134.092 71.11C133.965 71.0355 133.842 70.9982 133.723 70.9982C133.711 70.9982 133.705 70.9803 133.705 70.9446C133.705 70.9088 133.711 70.8909 133.723 70.8909L134.246 70.8999C134.296 70.8999 134.365 70.8984 134.452 70.8954C134.539 70.8924 134.76 70.8909 135.115 70.8909C135.165 70.8909 135.207 70.9058 135.241 70.9356C135.275 70.9654 135.33 71.0221 135.404 71.1055C135.454 71.177 135.523 71.2604 135.61 71.3558L137.917 73.823V72.0352C137.917 71.6776 137.86 71.4154 137.748 71.2485C137.636 71.0817 137.456 70.9982 137.207 70.9982C137.194 70.9982 137.188 70.9803 137.188 70.9446C137.188 70.9088 137.194 70.8909 137.207 70.8909L137.562 70.8999C137.748 70.9118 137.895 70.9178 138.001 70.9178C138.106 70.9178 138.259 70.9118 138.458 70.8999L138.832 70.8909ZM145.107 70.7837C145.338 70.7837 145.588 70.8075 145.859 70.8552C146.13 70.9029 146.353 70.9654 146.527 71.0429C146.571 71.0608 146.599 71.0802 146.611 71.101C146.623 71.1219 146.63 71.1532 146.63 71.1949L146.676 72.1156C146.676 72.1335 146.661 72.1454 146.63 72.1514C146.599 72.1573 146.577 72.1484 146.564 72.1246C146.328 71.7372 146.086 71.4496 145.841 71.2619C145.595 71.0742 145.313 70.9803 144.995 70.9803C144.553 70.9803 144.214 71.1487 143.977 71.4854C143.741 71.8221 143.623 72.2706 143.623 72.8308C143.623 73.2002 143.677 73.5489 143.786 73.8766C143.895 74.2044 144.068 74.4726 144.304 74.6812C144.541 74.8898 144.84 74.994 145.201 74.994C145.518 74.994 145.788 74.9017 146.009 74.7169C146.23 74.5322 146.446 74.2342 146.658 73.823C146.664 73.7992 146.683 73.7902 146.714 73.7962C146.745 73.8021 146.76 73.8141 146.76 73.8319L146.686 74.7795C146.679 74.8272 146.67 74.86 146.658 74.8778C146.645 74.8957 146.611 74.9166 146.555 74.9404C146.076 75.1013 145.578 75.1818 145.061 75.1818C144.463 75.1818 143.974 75.0685 143.595 74.8421C143.215 74.6156 142.939 74.3325 142.768 73.9929C142.597 73.6532 142.511 73.3105 142.511 72.9648C142.511 72.5596 142.625 72.1901 142.852 71.8564C143.079 71.5227 143.391 71.2604 143.786 71.0697C144.181 70.879 144.622 70.7837 145.107 70.7837ZM149.506 71.624V74.3147C149.506 74.4756 149.522 74.5948 149.553 74.6722C149.584 74.7497 149.645 74.8048 149.735 74.8376C149.825 74.8704 149.961 74.8868 150.141 74.8868H150.244C150.599 74.8868 150.922 74.7765 151.215 74.556C151.508 74.3355 151.722 74.0375 151.859 73.6621C151.866 73.6502 151.886 73.6457 151.92 73.6487C151.954 73.6517 151.972 73.6591 151.972 73.671C151.928 73.9869 151.906 74.41 151.906 74.9404C151.906 74.9881 151.895 75.0224 151.873 75.0432C151.852 75.0641 151.813 75.0745 151.757 75.0745H148.021C148.009 75.0745 148.003 75.0566 148.003 75.0209C148.003 74.9851 148.009 74.9672 148.021 74.9672C148.183 74.9672 148.301 74.9523 148.376 74.9225C148.451 74.8927 148.502 74.8346 148.53 74.7482C148.558 74.6618 148.572 74.5292 148.572 74.3504V71.615C148.572 71.4362 148.558 71.3051 148.53 71.2217C148.502 71.1383 148.451 71.0802 148.376 71.0474C148.301 71.0146 148.183 70.9982 148.021 70.9982C148.009 70.9982 148.003 70.9803 148.003 70.9446C148.003 70.9088 148.009 70.8909 148.021 70.8909L148.479 70.8999C148.74 70.9118 148.943 70.9178 149.086 70.9178C149.248 70.9178 149.459 70.9118 149.721 70.8999L150.15 70.8909C150.169 70.8909 150.178 70.9088 150.178 70.9446C150.178 70.9803 150.169 70.9982 150.15 70.9982C149.964 70.9982 149.825 71.0146 149.735 71.0474C149.645 71.0802 149.584 71.1398 149.553 71.2262C149.522 71.3126 149.506 71.4452 149.506 71.624ZM156.986 71.9279C156.986 71.612 156.923 71.3781 156.795 71.2262C156.667 71.0742 156.467 70.9982 156.193 70.9982C156.174 70.9982 156.165 70.9803 156.165 70.9446C156.165 70.9088 156.174 70.8909 156.193 70.8909L156.585 70.8999C156.797 70.9118 156.968 70.9178 157.099 70.9178C157.198 70.9178 157.348 70.9118 157.547 70.8999L157.93 70.8909C157.942 70.8909 157.948 70.9088 157.948 70.9446C157.948 70.9803 157.942 70.9982 157.93 70.9982C157.681 70.9982 157.5 71.0727 157.388 71.2217C157.276 71.3707 157.22 71.6061 157.22 71.9279V73.4297C157.22 73.9839 157.061 74.416 156.744 74.7259C156.426 75.0358 155.997 75.1907 155.455 75.1907C155.106 75.1907 154.784 75.1237 154.488 74.9896C154.193 74.8555 153.956 74.6633 153.779 74.413C153.601 74.1627 153.512 73.8647 153.512 73.5191V71.615C153.512 71.4362 153.498 71.3051 153.47 71.2217C153.442 71.1383 153.386 71.0802 153.302 71.0474C153.218 71.0146 153.089 70.9982 152.915 70.9982C152.896 70.9982 152.887 70.9803 152.887 70.9446C152.887 70.9088 152.896 70.8909 152.915 70.8909L153.363 70.8999C153.612 70.9118 153.811 70.9178 153.961 70.9178C154.129 70.9178 154.337 70.9118 154.586 70.8999L155.035 70.8909C155.047 70.8909 155.053 70.9088 155.053 70.9446C155.053 70.9803 155.047 70.9982 155.035 70.9982C154.86 70.9982 154.731 71.0161 154.647 71.0519C154.563 71.0876 154.505 71.1487 154.474 71.2351C154.443 71.3215 154.428 71.4541 154.428 71.6329V73.2867C154.428 73.817 154.548 74.2059 154.787 74.4532C155.027 74.7005 155.34 74.8242 155.726 74.8242C156.112 74.8242 156.418 74.705 156.646 74.4666C156.873 74.2283 156.986 73.8886 156.986 73.4476V71.9279ZM161.572 72.7592C162.058 72.7831 162.426 72.8844 162.679 73.0632C162.931 73.242 163.057 73.4893 163.057 73.8051C163.057 74.0614 162.979 74.2878 162.823 74.4845C162.668 74.6812 162.451 74.8346 162.174 74.9449C161.897 75.0551 161.581 75.1103 161.226 75.1103C161.058 75.1103 160.856 75.1013 160.619 75.0834C160.532 75.0775 160.425 75.0715 160.297 75.0656C160.169 75.0596 160.031 75.0566 159.882 75.0566L159.284 75.0656C159.172 75.0715 159.016 75.0745 158.817 75.0745C158.804 75.0745 158.798 75.0566 158.798 75.0209C158.798 74.9851 158.804 74.9672 158.817 74.9672C159.004 74.9672 159.139 74.9523 159.223 74.9225C159.307 74.8927 159.363 74.8346 159.391 74.7482C159.419 74.6618 159.433 74.5292 159.433 74.3504V71.615C159.433 71.4362 159.419 71.3051 159.391 71.2217C159.363 71.1383 159.307 71.0802 159.223 71.0474C159.139 71.0146 159.01 70.9982 158.836 70.9982C158.817 70.9982 158.808 70.9803 158.808 70.9446C158.808 70.9088 158.817 70.8909 158.836 70.8909L159.284 70.8999C159.533 70.9118 159.732 70.9178 159.882 70.9178C160.068 70.9178 160.264 70.9088 160.47 70.8909C160.538 70.885 160.641 70.879 160.778 70.8731C160.915 70.8671 161.033 70.8641 161.133 70.8641C161.594 70.8641 161.953 70.9386 162.212 71.0876C162.47 71.2366 162.599 71.4511 162.599 71.7312C162.599 71.9577 162.512 72.1573 162.338 72.3302C162.163 72.503 161.908 72.646 161.572 72.7592ZM160.899 70.9803C160.75 70.9803 160.638 70.9967 160.563 71.0295C160.489 71.0623 160.436 71.1249 160.405 71.2172C160.373 71.3096 160.358 71.4482 160.358 71.6329V72.7414C160.464 72.7473 160.604 72.7503 160.778 72.7503C161.002 72.7503 161.175 72.7309 161.296 72.6922C161.418 72.6535 161.51 72.576 161.572 72.4598C161.634 72.3436 161.665 72.1752 161.665 71.9547C161.665 71.3051 161.41 70.9803 160.899 70.9803ZM161.058 74.9672C161.737 74.9672 162.076 74.6514 162.076 74.0197C162.076 73.2926 161.606 72.9291 160.666 72.9291C160.529 72.9291 160.426 72.9321 160.358 72.938V74.3504C160.358 74.5769 160.405 74.7363 160.498 74.8287C160.591 74.921 160.778 74.9672 161.058 74.9672Z" fill="white"/>
</g>
<g clip-path="url(#clip2_763_3083)">
<path d="M89.3994 10.4149H87.6041V4.11328H81.6199V16.1439H81.0214V10.4149H76.2342V13.8522H75.6357V6.40492H71.447V10.9879H67.8565V20.1542H64.8643V21.2999H69.0532V12.1336H72.6437V7.5506H74.439V14.9982H77.4309V11.5609H79.8247V17.2896H82.8166V5.25896H86.4074V11.5609H88.2026V21.2999H92.3916V20.1542H89.3994V10.4149Z" fill="#E3E3E3"/>
</g>
<g clip-path="url(#clip3_763_3083)">
<path d="M96.6946 32.2376H60.5616C58.7239 32.2376 57.145 30.7509 57.145 28.8429V3.39474C57.145 1.48675 58.6462 0 60.5616 0H96.6946C98.5323 0 100.111 1.48675 100.111 3.39474V28.8429C100.034 30.7261 98.5323 32.2376 96.6946 32.2376ZM60.5616 1.31329C59.4745 1.31329 58.5168 2.23012 58.5168 3.39474V28.8429C58.5168 30.0075 59.3969 30.9243 60.5616 30.9243H96.6946C97.7817 30.9243 98.7394 30.0075 98.7394 28.8429V3.39474C98.7394 2.23012 97.8594 1.31329 96.6946 1.31329H60.5616Z" fill="#EB780F"/>
<path d="M91.2849 35.6821H65.9711C65.5569 35.6821 65.2981 35.4095 65.2981 35.0378C65.2981 34.6413 65.5828 34.3936 65.9711 34.3936H91.2849C91.699 34.3936 91.9578 34.6661 91.9578 35.0378C91.9578 35.4095 91.6214 35.6821 91.2849 35.6821Z" fill="#EB780F"/>
<path d="M78.628 35.682C78.2139 35.682 77.9551 35.4095 77.9551 35.0378V31.5935C77.9551 31.197 78.2398 30.9492 78.628 30.9492C79.0163 30.9492 79.301 31.2218 79.301 31.5935V35.0378C79.301 35.3599 79.0422 35.682 78.628 35.682Z" fill="#EB780F"/>
<path d="M78.628 29.6356C77.7479 29.6356 77.0491 28.9913 77.0491 28.1489C77.0491 27.3064 77.722 26.6621 78.628 26.6621C79.508 26.6621 80.2068 27.3064 80.2068 28.1489C80.2068 28.9666 79.508 29.6356 78.628 29.6356ZM78.628 27.9258C78.4985 27.9258 78.4209 28.0002 78.4209 28.1241C78.4209 28.248 78.4985 28.3223 78.628 28.3223C78.7574 28.3223 78.835 28.248 78.835 28.1241C78.835 28.0002 78.7574 27.9258 78.628 27.9258Z" fill="#EB780F"/>
<path d="M99.3606 25.3984H57.8956C57.4815 25.3984 57.2227 25.1258 57.2227 24.7541C57.2227 24.3577 57.5074 24.1099 57.8956 24.1099H99.4123C99.8265 24.1099 100.085 24.3824 100.085 24.7541C100.111 25.1258 99.7747 25.3984 99.3606 25.3984Z" fill="#EB780F"/>
</g>
<defs>
<clipPath id="clip0_763_3083">
<rect width="96.8185" height="19.3782" fill="white" transform="translate(33.2266 44.1973)"/>
</clipPath>
<clipPath id="clip1_763_3083">
<rect width="164" height="5.81346" fill="white" transform="translate(0 69.3892)"/>
</clipPath>
<clipPath id="clip2_763_3083">
<rect width="27.5274" height="17.1866" fill="white" transform="translate(64.8645 4.11328)"/>
</clipPath>
<clipPath id="clip3_763_3083">
<rect width="42.9662" height="35.6819" fill="white" transform="translate(57.145)"/>
</clipPath>
</defs>
</svg>
